<svg id="Layer_1" data-name="Layer 1" xmlns="http://www.w3.org/2000/svg" xmlns:xlink="http://www.w3.org/1999/xlink" viewBox="0 0 512 512"><defs><style>.cls-1{fill:none;stroke:#ddd;stroke-miterlimit:10;stroke-width:12px;}.cls-2{fill:#dddce1;}.cls-3{clip-path:url(#clip-path);}.cls-4{clip-path:url(#clip-path-2);}</style><clipPath id="clip-path"><circle class="cls-1" cx="-762" cy="-276" r="243"/></clipPath><clipPath id="clip-path-2"><circle class="cls-1" cx="129.796" cy="415.285" r="243"/></clipPath></defs><title>logo--wordmark</title><path class="cls-2" d="M116.906,59.546c-3.193,2.261-3.921,4.97-2.512,6.958,1.522,2.246,4.47,1.651,7.588.37l3.24-1.3c6.216-2.593,12.016-2.607,15.668,2.517,3.985,5.659,2.106,12.393-5.424,17.727-7.486,5.3-14.7,5.233-19.592-1.322l6.311-4.468c2.4,2.938,5.945,2.775,9.335.376,3.312-2.347,4.363-5.4,2.778-7.667-1.486-2.068-4.037-1.709-7.971-.144l-3.956,1.536c-6.1,2.44-11.149,2.106-14.355-2.452-4-5.583-1.688-12.826,5.074-17.615,6.868-4.863,14.074-4.267,18.056,1.165L124.9,59.654C122.938,57.4,120.023,57.337,116.906,59.546Z"/><path class="cls-2" d="M132.5,40.735l7.977-3.536,16.353,21.463.286-.127-4.329-26.791,6.83-3.028,16.948,21.26.3-.136-4.942-26.581,7.976-3.535,5.427,38.916L178.21,61.8,161.625,42.129l-.27.12L164.8,67.737l-7.117,3.155Z"/><path class="cls-2" d="M206.241,52.867l-7.72,2.056L188.8,18.407l7.721-2.055Z"/><path class="cls-2" d="M216.662,12.036l13.29,23.99.44-.051,7.371-26.417,9.781-1.149,4.405,37.512-7.692.905-2.868-24.417-.312.036-6.862,25.374-5.238.615L216.412,25.249l-.311.037L218.979,49.8l-7.694.9L206.88,13.184Z"/><path class="cls-2" d="M303.211,20c-3.835-.764-6.3.569-6.776,2.957-.584,2.648,1.873,4.379,4.945,5.762l3.17,1.459c6.151,2.731,10.148,6.93,8.937,13.1-1.37,6.781-7.549,10.043-16.593,8.242-8.991-1.791-13.9-7.077-12.5-15.13l7.579,1.51c-.486,3.76,2.07,6.225,6.14,7.035,3.98.794,6.916-.54,7.475-3.25.479-2.5-1.533-4.1-5.372-5.885l-3.833-1.817c-5.96-2.748-9.189-6.645-8.083-12.1,1.305-6.735,8.15-10.036,16.271-8.419,8.249,1.644,12.768,7.283,11.561,13.908l-7.507-1.5C308.914,22.9,306.955,20.742,303.211,20Z"/><path class="cls-2" d="M327.617,18.363l8.048,3.375L331.281,48.37l.29.121,16.516-21.546,6.892,2.89-3.828,26.926.307.129L367.4,35.044l8.049,3.374L350.865,69.086l-7.18-3.011L346.6,40.507l-.272-.113L330.157,60.4l-7.18-3.01Z"/><path class="cls-2" d="M369.462,80.322l-6.8-4.2,19.85-32.155,6.8,4.2Z"/><path class="cls-2" d="M406.268,59.81l-8.3,26.157.34.283,24.269-12.805,7.561,6.319-24.239,29-5.946-4.97,15.776-18.873-.241-.2L392.327,97.174l-4.049-3.386,8.213-25.073-.24-.2L380.416,87.457l-5.946-4.971,24.238-29Z"/><path class="cls-2" d="M450.433,114.107c-2.306-3.158-5.024-3.848-6.992-2.412-2.223,1.555-1.586,4.492-.26,7.59l1.345,3.221c2.68,6.175,2.778,11.973-2.293,15.7-5.6,4.063-12.358,2.281-17.8-5.169-5.406-7.407-5.441-14.621,1.041-19.6l4.557,6.244c-2.9,2.437-2.691,5.982-.244,9.335,2.393,3.278,5.457,4.285,7.7,2.669,2.046-1.515,1.651-4.06.03-7.97l-1.59-3.932c-2.527-6.058-2.266-11.114,2.246-14.384,5.521-4.076,12.8-1.871,17.678,4.821,4.959,6.8,4.466,14-.907,18.065l-4.514-6.185C452.664,120.106,452.684,117.191,450.433,114.107Z"/><path class="cls-2" d="M469.476,129.416l3.648,7.927L451.89,154l.131.284,26.733-4.706,3.123,6.786-21.021,17.25.139.3,26.513-5.316,3.647,7.927L452.313,182.5l-3.254-7.073,19.432-16.862-.123-.268-25.44,3.807-3.255-7.072Z"/><path class="cls-2" d="M458.405,203.364l-2.167-7.692,36.386-10.251,2.167,7.692Z"/><path class="cls-2" d="M499.377,213.176l-23.805,13.631.058.439,26.523,7,1.287,9.766-37.453,4.936-1.011-7.682,24.377-3.212-.041-.311-25.472-6.5-.69-5.231,23.009-12.893-.041-.31-24.469,3.224-1.012-7.681,37.453-4.935Z"/><path class="cls-2" d="M485.272,329.192c1.186-3.727.135-6.327-2.185-7.066-2.568-.875-4.563,1.377-6.279,4.276l-1.8,2.989c-3.4,5.811-8.018,9.318-14.02,7.427-6.587-2.115-9.144-8.62-6.347-17.412,2.781-8.738,8.58-13.031,16.43-10.745l-2.343,7.366c-3.683-.9-6.418,1.367-7.677,5.323-1.231,3.867-.232,6.934,2.4,7.791,2.432.755,4.251-1.068,6.448-4.686l2.232-3.608c3.4-5.618,7.628-8.4,12.933-6.689,6.551,2.047,9.071,9.218,6.559,17.113-2.552,8.016-8.66,11.881-15.111,9.945l2.322-7.3C481.751,334.539,484.114,332.832,485.272,329.192Z"/><path class="cls-2" d="M484.2,353.653l-4.247,7.627-25.989-7.31-.152.274L473.4,373.052l-3.637,6.53-26.343-6.789-.161.291L463.2,391.353l-4.246,7.627L431.2,371.144l3.788-6.806,25.093,5.734.145-.259-18.1-18.293,3.789-6.805Z"/><path class="cls-2" d="M417.963,388.317l4.934-6.285,29.728,23.338-4.935,6.285Z"/><path class="cls-2" d="M434.2,427.222l-25.056-11.184-.321.306,10,25.552-7.129,6.8L385.607,421.36l5.607-5.35,16.98,17.8.227-.217-9.777-24.412,3.817-3.644,23.992,10.977.227-.217-17.044-17.86,5.607-5.351,26.088,27.34Z"/><path class="cls-2" d="M375.362,465.01c3.395-1.943,4.38-4.569,3.17-6.683-1.3-2.382-4.291-2.073-7.517-1.1l-3.35.982c-6.436,1.981-12.21,1.439-15.352-4.014-3.421-6.014-.9-12.537,7.1-17.12,7.961-4.556,15.137-3.794,19.373,3.2l-6.71,3.842c-2.1-3.156-5.651-3.337-9.255-1.274-3.523,2.015-4.863,4.951-3.5,7.363,1.282,2.2,3.854,2.09,7.92.91l4.085-1.146c6.3-1.843,11.3-1.025,14.052,3.822,3.441,5.939.445,12.927-6.746,17.041-7.3,4.181-14.418,2.894-17.86-2.9l6.647-3.8C369.151,466.566,372.047,466.907,375.362,465.01Z"/><path class="cls-2" d="M358.019,482.262l-8.285,2.744-14.192-22.954-.3.1,1.706,27.091-7.093,2.35-14.8-22.811-.317.105,2.337,26.94-8.284,2.744L307.169,459.3l7.391-2.449,14.6,21.188.279-.093-.955-25.706,7.391-2.448Z"/><path class="cls-2" d="M285.787,463.021l7.888-1.293,6.122,37.3-7.887,1.294Z"/><path class="cls-2" d="M271.447,502.647,260.56,477.458l-.444.009-9.923,25.584-9.851.186-.718-37.784,7.748-.146.468,24.592.313,0,9.315-24.6,5.276-.1,10.244,24.316.314-.007-.47-24.685,7.749-.147.719,37.785Z"/><path class="cls-2" d="M202.518,490.666c3.815.864,6.316-.4,6.855-2.777.653-2.633-1.758-4.429-4.793-5.893l-3.131-1.543c-6.078-2.892-9.963-7.2-8.589-13.338,1.549-6.742,7.814-9.842,16.81-7.8,8.941,2.029,13.71,7.444,12.1,15.458l-7.539-1.71c.585-3.746-1.905-6.278-5.953-7.2-3.958-.9-6.929.358-7.56,3.053-.545,2.486,1.425,4.144,5.216,6.026l3.784,1.918c5.886,2.906,9.011,6.888,7.761,12.317-1.483,6.7-8.415,9.82-16.492,7.987-8.2-1.862-12.573-7.621-11.191-14.211l7.467,1.694C196.893,487.61,198.794,489.82,202.518,490.666Z"/><path class="cls-2" d="M178.089,491.635l-7.953-3.584,5.086-26.5-.285-.129-17.076,21.093-6.81-3.071,4.537-26.805-.3-.135-16.509,21.407-7.954-3.586L156.2,440.334l7.1,3.2L159.7,469l.269.122,16.691-19.568,7.1,3.2Z"/><path class="cls-2" d="M137.9,428.6l6.685,4.382L123.867,464.6l-6.684-4.381Z"/><path class="cls-2" d="M100.558,448.112l8.994-25.92-.333-.292-24.6,12.15-7.387-6.518,25-28.331,5.81,5.126L91.771,422.768l.236.208,23.481-11.833,3.956,3.491-8.878,24.841.235.207,16.333-18.509,5.809,5.126-25,28.332Z"/><path class="cls-2" d="M57.854,392.659c2.221,3.222,4.92,3.983,6.925,2.6,2.265-1.494,1.707-4.448.465-7.582l-1.259-3.257c-2.514-6.247-2.457-12.046,2.713-15.634,5.708-3.913,12.418-1.95,17.656,5.646C89.561,381.98,89.4,389.2,82.788,394l-4.39-6.365c2.968-2.361,2.851-5.911.494-9.329-2.3-3.341-5.341-4.431-7.631-2.873-2.086,1.459-1.759,4.013-.243,7.967l1.485,3.974c2.364,6.126,1.967,11.175-2.632,14.323-5.63,3.927-12.844,1.528-17.548-5.3-4.777-6.926-4.091-14.124,1.391-18.039l4.348,6.305C55.784,386.6,55.686,389.515,57.854,392.659Z"/><path class="cls-2" d="M39.207,376.859l-3.439-8.025,21.68-16.1-.124-.289-26.864,4-2.944-6.871L49,332.879l-.13-.306-26.661,4.615-3.439-8.025,39.01-4.947,3.069,7.16L40.964,347.729l.116.272,25.548-3.136,3.068,7.161Z"/><path class="cls-2" d="M52.262,303.229l1.958,7.747-36.645,9.261-1.958-7.748Z"/><path class="cls-2" d="M11.562,292.35l24.159-13-.047-.44-26.331-7.7-1.029-9.8,37.574-3.944.809,7.706-24.455,2.567.032.313,25.293,7.174.551,5.247L24.774,292.762l.034.311L49.355,290.5l.809,7.707-37.573,3.944Z"/><path class="cls-2" d="M17.635,222.625c-.541,3.874.933,6.259,3.344,6.595,2.679.43,4.264-2.125,5.468-5.271l1.274-3.251c2.369-6.3,6.332-10.533,12.566-9.681,6.848.974,10.465,6.956,9.19,16.091-1.269,9.081-6.261,14.289-14.383,13.359l1.069-7.655c3.78.267,6.094-2.427,6.668-6.539.561-4.019-.939-6.873-3.678-7.274-2.524-.334-4.009,1.768-5.565,5.705L32,228.634c-2.4,6.111-6.1,9.562-11.619,8.773-6.8-.913-10.494-7.557-9.348-15.76,1.163-8.332,6.533-13.171,13.217-12.349l-1.059,7.583C20.2,216.762,18.163,218.843,17.635,222.625Z"/><path class="cls-2" d="M14.6,198.344l2.9-8.228,26.833,2.833.1-.3-22.46-15.237,2.485-7.045,27.1,2.261.11-.314L28.946,157.672l2.9-8.228L63.88,172.2l-2.589,7.34L35.6,178.113l-.1.278,20.906,14.982-2.589,7.341Z"/><path class="cls-2" d="M74.018,152.981l-3.8,7.031L36.965,142.06l3.8-7.031Z"/><path class="cls-2" d="M51.41,117.439,78,124.193l.264-.355-14.2-23.47,5.865-7.914,30.349,22.493-4.613,6.224L75.909,106.53l-.186.252,13.784,22.385-3.14,4.239-25.5-6.733-.187.253,19.828,14.7-4.613,6.224-30.35-22.493Z"/><g class="cls-3"><g class="cls-4"><ellipse class="cls-1" cx="129.796" cy="415.285" rx="136.538" ry="243"/><ellipse class="cls-1" cx="129.796" cy="180.639" rx="252.389" ry="132.958"/><ellipse class="cls-1" cx="129.796" cy="648.498" rx="252.389" ry="132.958"/><line class="cls-1" x1="129.796" y1="-809.263" x2="129.796" y2="810.1"/><line class="cls-1" x1="939.477" y1="414.807" x2="-679.886" y2="414.807"/></g><circle class="cls-1" cx="129.796" cy="415.285" r="243"/></g><circle class="cls-1" cx="-762" cy="-276" r="243"/></svg>