<?xml version="1.0" encoding="utf-8"?>
<!-- Generator: Adobe Illustrator 22.0.0, SVG Export Plug-In . SVG Version: 6.00 Build 0)  -->
<svg version="1.1" id="Layer_1" xmlns="http://www.w3.org/2000/svg" xmlns:xlink="http://www.w3.org/1999/xlink" x="0px" y="0px"
	 viewBox="0 0 369.8 372.6" style="enable-background:new 0 0 369.8 372.6;" xml:space="preserve">
<style type="text/css">
	.st0{fill:none;}
	.st1{fill:#DDDCE1;}
	.st2{clip-path:url(#SVGID_2_);fill:none;stroke:#FFFFFF;stroke-width:12;stroke-miterlimit:10;}
	.st3{clip-path:url(#SVGID_4_);fill:none;stroke:#DDDCE1;stroke-width:12;stroke-miterlimit:10;}
	.st4{clip-path:url(#SVGID_4_);}
	.st5{clip-path:url(#SVGID_6_);fill:none;stroke:#000000;stroke-width:12;stroke-miterlimit:10;}
</style>
<g>
	<circle class="st0" cx="184.9" cy="186.3" r="144.8"/>
	<path class="st1" d="M8.6,166.2c-0.5,4.3,1.3,7,4.1,7.4c3.1,0.4,4.8-2.8,5.9-5.8l1.3-3.4c2-5.5,5.6-10.6,12.1-9.9
		c6.6,0.8,10.6,6.5,9.5,15.6c-1,8.8-5.8,13.9-13.4,13.3l0.8-6.7c4,0.2,6.3-2.9,6.8-7.2c0.5-4.5-1.3-7.8-4.5-8.1
		c-2.9-0.3-4.5,2.2-6,6.2l-1.6,4.2c-2.3,6-5.9,9.5-11.3,8.9c-6.7-0.7-10.4-7.2-9.6-15.1c0.9-8,6-12.9,12.4-12.4l-0.7,6.6
		C11.2,159.7,9,162.2,8.6,166.2z"/>
	<path class="st1" d="M6.4,139.7l2.8-6.8l28.4,4.4l0.1-0.3l-23-17.4l2.6-6.2l28.6,3.9l0.1-0.3l-23.2-17l2.8-6.8l31,24.4l-2.6,6.3
		l-27.5-3.2l-0.1,0.3L48.2,138l-2.6,6.3L6.4,139.7z"/>
	<path class="st1" d="M68.2,100.5l-3.9,5.6L33.1,84.4l3.9-5.6L68.2,100.5z"/>
	<path class="st1" d="M50.6,61.7l27.1,12.2l0.3-0.3L67.3,45.9l6.1-5.8l26.1,27.5l-4.8,4.5l-18-18.9l-0.3,0.2l10.3,26.1L83.2,83
		L57.7,71.3l-0.3,0.2l18,18.9l-4.8,4.5L44.5,67.5L50.6,61.7z"/>
	<path class="st1" d="M114.1,23.6c-3.9,1.7-5.4,4.7-4.3,7.3c1.2,2.9,4.9,2.8,8,2.2l3.6-0.6c5.8-1,12-0.5,14.6,5.5
		c2.7,6.1-0.4,12.4-8.7,16.1c-8.1,3.5-15,1.9-18.2-4.9l6.2-2.7c1.9,3.5,5.7,4,9.6,2.2c4.1-1.8,6.1-5,4.8-8c-1.2-2.7-4.2-2.8-8.4-2.1
		l-4.4,0.7c-6.4,1-11.2-0.3-13.4-5.3c-2.7-6.1,1-12.7,8.3-15.9c7.4-3.2,14.2-1.3,16.9,4.6l-6.1,2.7
		C121.1,22.6,117.8,21.9,114.1,23.6z"/>
	<path class="st1" d="M136,8.4l7.3-1l10.4,26.8l0.4,0l3.6-28.6l6.7-0.9l10.9,26.7l0.3,0l3.1-28.6l7.3-1l-5.7,39l-6.7,0.9l-11-25.4
		l-0.3,0l-4.1,27.4l-6.7,0.9L136,8.4z"/>
	<path class="st1" d="M200.8,42.3l-6.8-0.6l3.3-37.8l6.8,0.6L200.8,42.3z"/>
	<path class="st1" d="M225.6,7.8l3,29.6l0.4,0.1l18.6-23.2l8.1,2.4L245,53l-6.3-1.9l7.4-25l-0.3-0.1L228.3,48l-4.7-1.4l-2.7-27.9
		l-0.3-0.1l-7.4,25.1l-6.3-1.9l10.7-36.4L225.6,7.8z"/>
	<path class="st1" d="M290.4,43.5c-3.5-2.5-6.8-2.4-8.5-0.1c-1.9,2.5,0,5.6,2.1,8l2.3,2.8c3.8,4.5,6.4,10.1,2.5,15.4
		c-4,5.4-10.9,5.9-18.3,0.5c-7.1-5.2-9.1-12-4.9-18.2l5.5,4c-2.1,3.4-0.6,6.9,2.9,9.5c3.6,2.7,7.4,2.7,9.3,0.1
		c1.7-2.4,0.3-5-2.4-8.3l-2.8-3.5c-4.1-5-5.3-9.8-2.1-14.2c4-5.4,11.4-5.5,17.9-0.8c6.5,4.8,8.2,11.7,4.5,16.9l-5.3-3.9
		C294.7,49.1,293.7,46,290.4,43.5z"/>
	<path class="st1" d="M314.5,54.9l4.5,5.9l-18,22.4l0.2,0.3l26.6-11.2l4.1,5.3l-17.7,22.8l0.2,0.3l26.3-11.6l4.5,5.9l-36.7,14.6
		l-4.1-5.4L321,82l-0.2-0.2L295,91.9l-4.1-5.4L314.5,54.9z"/>
	<path class="st1" d="M317.6,128.1l-2.9-6.2l34.4-16.1l2.9,6.2L317.6,128.1z"/>
	<path class="st1" d="M359.9,132.1l-24.1,17.5l0.1,0.4l29.4,4.5l2,8.2l-36.9,9l-1.6-6.4l25.4-6.2l-0.1-0.3l-27.7-4.1l-1.2-4.8
		l22.8-16.3l-0.1-0.3l-25.4,6.2l-1.6-6.4l36.9-9L359.9,132.1z"/>
	<path class="st1" d="M361.3,206.2c0.5-4.3-1.3-7-4.2-7.4c-3.1-0.4-4.8,2.8-5.9,5.8l-1.3,3.4c-2,5.5-5.6,10.6-12.1,9.9
		c-6.6-0.8-10.6-6.5-9.6-15.6c1-8.8,5.8-13.9,13.4-13.3l-0.8,6.7c-4-0.2-6.3,2.9-6.8,7.2c-0.5,4.5,1.3,7.8,4.5,8.1
		c2.9,0.3,4.5-2.2,6-6.2l1.6-4.2c2.3-6,5.8-9.5,11.3-8.9c6.7,0.7,10.5,7.2,9.6,15.1c-0.9,8-6,13-12.4,12.4l0.7-6.6
		C358.6,212.8,360.8,210.3,361.3,206.2z"/>
	<path class="st1" d="M363.5,232.8l-2.8,6.8l-28.4-4.3l-0.1,0.3l23,17.4l-2.6,6.2l-28.6-3.9l-0.1,0.3l23.2,17l-2.8,6.8l-31-24.4
		l2.6-6.3l27.5,3.1l0.1-0.3l-21.7-17.2l2.6-6.3L363.5,232.8z"/>
	<path class="st1" d="M301.8,272.1l3.9-5.6l31.2,21.7l-3.9,5.6L301.8,272.1z"/>
	<path class="st1" d="M319.4,310.8l-27.1-12.2l-0.3,0.3l10.8,27.7l-6.1,5.8l-26.2-27.5l4.8-4.5l18,18.9l0.3-0.2l-10.3-26l3.6-3.4
		l25.5,11.6l0.3-0.2l-18-18.9l4.8-4.5l26.2,27.5L319.4,310.8z"/>
	<path class="st1" d="M256,349c3.9-1.7,5.4-4.7,4.3-7.3c-1.2-2.9-4.9-2.8-8-2.2l-3.6,0.6c-5.8,1.1-12,0.5-14.6-5.5
		c-2.7-6.1,0.3-12.4,8.7-16.1c8.1-3.6,14.9-1.9,18.2,4.9l-6.2,2.7c-1.9-3.5-5.7-4-9.6-2.2c-4.1,1.8-6.1,5-4.8,8
		c1.2,2.7,4.2,2.8,8.4,2.1l4.4-0.7c6.4-1,11.2,0.3,13.4,5.3c2.7,6.1-1,12.7-8.3,15.9c-7.4,3.3-14.2,1.3-16.9-4.5l6.1-2.7
		C249,350,252.2,350.7,256,349z"/>
	<path class="st1" d="M234.1,364.2l-7.3,1l-10.5-26.7l-0.3,0l-3.5,28.6l-6.7,0.9l-10.9-26.7l-0.3,0l-3.1,28.6l-7.3,1l5.6-39l6.7-0.9
		l11.1,25.4l0.3,0l4-27.4l6.7-0.9L234.1,364.2z"/>
	<path class="st1" d="M169.2,330.4l6.9,0.6l-3.3,37.8l-6.9-0.6L169.2,330.4z"/>
	<path class="st1" d="M144.5,365l-3.1-29.6l-0.4-0.1l-18.6,23.2l-8.1-2.4l10.7-36.4l6.3,1.9l-7.3,25l0.3,0.1l17.4-22l4.7,1.4
		l2.7,27.9l0.3,0.1l7.4-25.1l6.3,1.9l-10.7,36.4L144.5,365z"/>
	<path class="st1" d="M79.6,329.3c3.5,2.5,6.8,2.4,8.5,0.1c1.9-2.5,0-5.6-2.1-8l-2.3-2.8c-3.8-4.5-6.4-10.1-2.5-15.4
		c4-5.4,10.9-5.9,18.3-0.5c7.1,5.2,9.1,12,4.9,18.2l-5.5-4c2.1-3.4,0.6-6.9-2.9-9.5c-3.6-2.7-7.4-2.7-9.3-0.1
		c-1.7,2.4-0.3,5,2.4,8.3l2.8,3.5c4.1,5,5.4,9.8,2.1,14.2c-4,5.4-11.4,5.5-17.9,0.8c-6.5-4.8-8.2-11.7-4.5-16.9l5.3,3.9
		C75.2,323.7,76.3,326.8,79.6,329.3z"/>
	<path class="st1" d="M55.4,317.9l-4.5-5.9l18-22.4l-0.2-0.3l-26.6,11.2l-4.1-5.3l17.7-22.8l-0.2-0.3l-26.3,11.6l-4.5-5.9l36.6-14.7
		l4.1,5.4l-16.5,22.3l0.2,0.2l25.8-10.2l4.1,5.4L55.4,317.9z"/>
	<path class="st1" d="M52.3,244.8l2.9,6.2l-34.3,16.2l-2.9-6.2L52.3,244.8z"/>
	<path class="st1" d="M10,240.8l24.1-17.5l-0.1-0.4l-29.4-4.4l-2-8.2l36.9-9l1.6,6.4l-25.3,6.2l0.1,0.3l27.7,4l1.2,4.8l-22.8,16.4
		l0.1,0.3l25.4-6.2l1.6,6.4l-36.9,9L10,240.8z"/>
</g>
<circle cx="133.8" cy="-497.3" r="132.7"/>
<g>
	<defs>
		<circle id="SVGID_1_" cx="133.8" cy="-497.3" r="116.6"/>
	</defs>
	<clipPath id="SVGID_2_">
		<use xlink:href="#SVGID_1_"  style="overflow:visible;"/>
	</clipPath>
	<ellipse class="st2" cx="133.8" cy="-497.3" rx="62.8" ry="114.3"/>
	<ellipse class="st2" cx="133.8" cy="-609.9" rx="134.8" ry="63.8"/>
	<ellipse class="st2" cx="133.8" cy="-385.4" rx="136.8" ry="63.8"/>
	<line class="st2" x1="133.8" y1="-1085" x2="133.8" y2="-307.8"/>
	<line class="st2" x1="522.4" y1="-497.5" x2="-254.8" y2="-497.5"/>
	<use xlink:href="#SVGID_1_"  style="overflow:visible;fill:none;stroke:#FFFFFF;stroke-width:12;stroke-miterlimit:10;"/>
</g>
<g>
	<defs>
		<circle id="SVGID_3_" cx="4.9" cy="-248.6" r="127.2"/>
	</defs>
	<clipPath id="SVGID_4_">
		<use xlink:href="#SVGID_3_"  style="overflow:visible;"/>
	</clipPath>
	<ellipse class="st3" cx="4.9" cy="-248.6" rx="71.5" ry="127.2"/>
	<ellipse class="st3" cx="4.9" cy="-371.5" rx="132.2" ry="69.6"/>
	<ellipse class="st3" cx="4.9" cy="-126.5" rx="132.2" ry="69.6"/>
	<line class="st3" x1="4.9" y1="-889.9" x2="4.9" y2="-41.9"/>
	<line class="st3" x1="428.9" y1="-248.9" x2="-419.1" y2="-248.9"/>
	<g class="st4">
		<defs>
			<circle id="SVGID_5_" cx="471.9" cy="113.4" r="127.2"/>
		</defs>
		<clipPath id="SVGID_6_">
			<use xlink:href="#SVGID_5_"  style="overflow:visible;"/>
		</clipPath>
		<ellipse class="st5" cx="471.9" cy="113.4" rx="71.5" ry="127.2"/>
		<ellipse class="st5" cx="471.9" cy="-9.5" rx="132.2" ry="69.6"/>
		<ellipse class="st5" cx="471.9" cy="235.5" rx="132.2" ry="69.6"/>
		<line class="st5" x1="471.9" y1="-527.9" x2="471.9" y2="320.1"/>
		<line class="st5" x1="895.9" y1="113.1" x2="47.9" y2="113.1"/>
		<use xlink:href="#SVGID_5_"  style="overflow:visible;fill:none;stroke:#000000;stroke-width:12;stroke-miterlimit:10;"/>
	</g>
	<g class="st4">
		<path d="M6.7-392h1v7.2h3.5v0.9H6.7V-392z"/>
		<path d="M17.4-386.8c0,2.1-1.5,3.1-2.9,3.1c-1.6,0-2.8-1.2-2.8-3c0-1.9,1.3-3.1,2.9-3.1C16.2-389.8,17.4-388.6,17.4-386.8z
			 M12.8-386.8c0,1.3,0.7,2.2,1.8,2.2c1,0,1.8-0.9,1.8-2.3c0-1-0.5-2.2-1.7-2.2C13.3-389,12.8-387.9,12.8-386.8z"/>
		<path d="M18.7-387.9c0-0.7,0-1.3,0-1.8h0.9l0,1.1h0c0.3-0.8,0.9-1.3,1.6-1.3c0.1,0,0.2,0,0.3,0v1c-0.1,0-0.2,0-0.4,0
			c-0.7,0-1.3,0.6-1.4,1.4c0,0.1,0,0.3,0,0.5v3.1h-1V-387.9z"/>
		<path d="M23.1-386.6c0,1.4,0.9,2,2,2c0.8,0,1.2-0.1,1.6-0.3l0.2,0.8c-0.4,0.2-1,0.4-1.9,0.4c-1.8,0-2.9-1.2-2.9-2.9s1-3.1,2.7-3.1
			c1.9,0,2.4,1.7,2.4,2.7c0,0.2,0,0.4,0,0.5H23.1z M26.2-387.3c0-0.7-0.3-1.7-1.5-1.7c-1.1,0-1.5,1-1.6,1.7H26.2z"/>
		<path d="M28.5-388.1c0-0.6,0-1.1,0-1.6h0.9l0,0.9h0c0.3-0.6,0.9-1.1,1.8-1.1c0.8,0,1.4,0.5,1.6,1.2h0c0.2-0.3,0.4-0.6,0.6-0.8
			c0.3-0.3,0.7-0.4,1.3-0.4c0.8,0,1.9,0.5,1.9,2.5v3.4h-1v-3.3c0-1.1-0.4-1.8-1.3-1.8c-0.6,0-1.1,0.4-1.2,1c0,0.1-0.1,0.3-0.1,0.5
			v3.6h-1v-3.5c0-0.9-0.4-1.6-1.2-1.6c-0.7,0-1.1,0.5-1.3,1.1c-0.1,0.2-0.1,0.3-0.1,0.5v3.5h-1V-388.1z"/>
		<path d="M42.3-391.3c0,0.4-0.3,0.6-0.7,0.6c-0.4,0-0.6-0.3-0.6-0.6c0-0.4,0.3-0.7,0.7-0.7C42-392,42.3-391.7,42.3-391.3z
			 M41.1-383.9v-5.8h1.1v5.8H41.1z"/>
		<path d="M43.9-387.8c0-0.7,0-1.3,0-1.9h0.9l0,1h0c0.4-0.7,1.1-1.1,2.1-1.1c1.4,0,2.5,1.2,2.5,3c0,2.1-1.3,3.1-2.6,3.1
			c-0.8,0-1.4-0.3-1.8-0.9h0v3.2h-1V-387.8z M44.9-386.2c0,0.2,0,0.3,0,0.4c0.2,0.7,0.8,1.2,1.6,1.2c1.1,0,1.8-0.9,1.8-2.2
			c0-1.2-0.6-2.2-1.7-2.2c-0.7,0-1.4,0.5-1.6,1.3c0,0.1-0.1,0.3-0.1,0.4V-386.2z"/>
		<path d="M50.6-384.9c0.3,0.2,0.9,0.4,1.4,0.4c0.8,0,1.1-0.4,1.1-0.9c0-0.5-0.3-0.8-1.1-1.1c-1-0.4-1.5-0.9-1.5-1.6
			c0-0.9,0.8-1.7,2-1.7c0.6,0,1.1,0.2,1.4,0.4l-0.3,0.8c-0.2-0.1-0.6-0.3-1.2-0.3c-0.6,0-1,0.4-1,0.8c0,0.5,0.3,0.7,1.1,1
			c1,0.4,1.5,0.9,1.5,1.8c0,1-0.8,1.7-2.2,1.7c-0.6,0-1.2-0.2-1.6-0.4L50.6-384.9z"/>
		<path d="M60.3-385.5c0,0.6,0,1.1,0,1.6h-0.9l-0.1-0.9h0c-0.3,0.5-0.9,1.1-1.9,1.1c-0.9,0-2-0.5-2-2.5v-3.4h1.1v3.2
			c0,1.1,0.3,1.8,1.3,1.8c0.7,0,1.2-0.5,1.4-1c0.1-0.2,0.1-0.3,0.1-0.5v-3.6h1.1V-385.5z"/>
		<path d="M62.1-388.1c0-0.6,0-1.1,0-1.6H63l0,0.9h0c0.3-0.6,0.9-1.1,1.8-1.1c0.8,0,1.4,0.5,1.6,1.2h0c0.2-0.3,0.4-0.6,0.6-0.8
			c0.3-0.3,0.7-0.4,1.3-0.4c0.8,0,1.9,0.5,1.9,2.5v3.4h-1v-3.3c0-1.1-0.4-1.8-1.3-1.8c-0.6,0-1.1,0.4-1.2,1c0,0.1-0.1,0.3-0.1,0.5
			v3.6h-1v-3.5c0-0.9-0.4-1.6-1.2-1.6c-0.7,0-1.1,0.5-1.3,1.1c-0.1,0.2-0.1,0.3-0.1,0.5v3.5h-1V-388.1z"/>
	</g>
	<use xlink:href="#SVGID_3_"  style="overflow:visible;fill:none;stroke:#DDDCE1;stroke-width:12;stroke-miterlimit:10;"/>
</g>
<g>
</g>
<g>
</g>
<g>
</g>
<g>
</g>
<g>
</g>
<g>
</g>
<g>
</g>
<g>
</g>
<g>
</g>
<g>
</g>
<g>
</g>
<g>
</g>
<g>
</g>
<g>
</g>
<g>
</g>
</svg>
