<svg id="Layer_1" data-name="Layer 1" xmlns="http://www.w3.org/2000/svg" xmlns:xlink="http://www.w3.org/1999/xlink" viewBox="0 0 512 512"><defs><style>.cls-1{fill:none;stroke-miterlimit:10;stroke-width:12px;}.cls-1,.cls-3{stroke:#ddd;}.cls-2{clip-path:url(#clip-path);}</style><clipPath id="clip-path"><circle class="cls-1" cx="256" cy="256" r="243"/></clipPath></defs><title>logo--globe</title><g class="cls-2"><ellipse class="cls-1" cx="256" cy="256" rx="136.538" ry="243"/><ellipse class="cls-1" cx="256" cy="21.355" rx="252.389" ry="132.958"/><ellipse class="cls-1" cx="256" cy="489.213" rx="252.389" ry="132.958"/><line class="cls-1" x1="256" y1="-968.548" x2="256" y2="650.815"/><line class="cls-1" x1="1065.682" y1="255.523" x2="-553.682" y2="255.523"/><circle class="cls-1" cx="1147.796" cy="947.285" r="243"/><path class="cls-3" d="M330.416-9.749c0-1.42-.046-2.566-.092-3.621h1.811l.092,1.9h.045a4.364,4.364,0,0,1,3.943-2.155c2.681,0,4.7,2.269,4.7,5.639,0,3.987-2.43,5.958-5.042,5.958a3.891,3.891,0,0,1-3.415-1.742h-.046V2.261h-1.994Zm1.994,2.957a4.524,4.524,0,0,0,.092.825,3.111,3.111,0,0,0,3.025,2.361c2.131,0,3.369-1.742,3.369-4.286,0-2.223-1.168-4.125-3.3-4.125a3.218,3.218,0,0,0-3.048,2.5,3.259,3.259,0,0,0-.138.825Z"/></g><circle class="cls-1" cx="256" cy="256" r="243"/></svg>