<?xml version="1.0" encoding="utf-8"?>
<!-- Generator: Adobe Illustrator 22.0.0, SVG Export Plug-In . SVG Version: 6.00 Build 0)  -->
<svg version="1.1" id="Layer_1" xmlns="http://www.w3.org/2000/svg" xmlns:xlink="http://www.w3.org/1999/xlink" x="0px" y="0px"
	 viewBox="0 0 268.8 269.8" style="enable-background:new 0 0 268.8 269.8;" xml:space="preserve">
<style type="text/css">
	.st0{fill:none;}
	.st1{clip-path:url(#SVGID_2_);fill:none;stroke:#FFFFFF;stroke-width:12;stroke-miterlimit:10;}
	.st2{clip-path:url(#SVGID_4_);fill:none;stroke:#DDDCE1;stroke-width:12;stroke-miterlimit:10;}
	.st3{clip-path:url(#SVGID_4_);}
	.st4{clip-path:url(#SVGID_6_);fill:none;stroke:#000000;stroke-width:12;stroke-miterlimit:10;}
</style>
<g>
	<circle class="st0" cx="-362.3" cy="44.4" r="144.8"/>
	<path d="M-538.6,24.4c-0.5,4.3,1.3,7,4.1,7.4c3.1,0.4,4.8-2.8,5.9-5.8l1.3-3.4c2-5.5,5.6-10.6,12.1-9.9c6.6,0.8,10.6,6.5,9.5,15.6
		c-1,8.8-5.8,13.9-13.4,13.3l0.8-6.7c4,0.2,6.3-2.9,6.8-7.2c0.5-4.5-1.3-7.8-4.5-8.1c-2.9-0.3-4.5,2.2-6,6.2l-1.6,4.2
		c-2.3,6-5.9,9.5-11.3,8.9c-6.7-0.7-10.4-7.2-9.6-15.1c0.9-8,6-12.9,12.4-12.4l-0.7,6.6C-536,17.8-538.2,20.3-538.6,24.4z"/>
	<path d="M-540.8-2.2L-538-9l28.4,4.4l0.1-0.3l-23-17.4l2.6-6.2l28.6,3.9l0.1-0.3l-23.2-17l2.8-6.8l31,24.4l-2.6,6.3l-27.5-3.2
		l-0.1,0.3l21.7,17.2l-2.6,6.3L-540.8-2.2z"/>
	<path d="M-479-41.4l-3.9,5.6l-31.1-21.7l3.9-5.6L-479-41.4z"/>
	<path d="M-496.6-80.1l27.1,12.2l0.3-0.3l-10.8-27.7l6.1-5.8l26.1,27.5l-4.8,4.5l-18-18.9l-0.3,0.2l10.3,26.1l-3.6,3.4l-25.5-11.6
		l-0.3,0.2l18,18.9l-4.8,4.5l-26.1-27.5L-496.6-80.1z"/>
	<path d="M-433.1-118.3c-3.9,1.7-5.4,4.7-4.3,7.3c1.2,2.9,4.9,2.8,8,2.2l3.6-0.6c5.8-1,12-0.5,14.6,5.5c2.7,6.1-0.4,12.4-8.7,16.1
		c-8.1,3.5-15,1.9-18.2-4.9l6.2-2.7c1.9,3.5,5.7,4,9.6,2.2c4.1-1.8,6.1-5,4.8-8c-1.2-2.7-4.2-2.8-8.4-2.1l-4.4,0.7
		c-6.4,1-11.2-0.3-13.4-5.3c-2.7-6.1,1-12.7,8.3-15.9c7.4-3.2,14.2-1.3,16.9,4.6l-6.1,2.7C-426.1-119.2-429.4-119.9-433.1-118.3z"/>
	<path d="M-411.2-133.5l7.3-1l10.4,26.8l0.4,0l3.6-28.6l6.7-0.9l10.9,26.7l0.3,0l3.1-28.6l7.3-1l-5.7,39l-6.7,0.9l-11-25.4l-0.3,0
		l-4.1,27.4l-6.7,0.9L-411.2-133.5z"/>
	<path d="M-346.4-99.5l-6.8-0.6l3.3-37.8l6.8,0.6L-346.4-99.5z"/>
	<path d="M-321.6-134.1l3,29.6l0.4,0.1l18.6-23.2l8.1,2.4l-10.7,36.4l-6.3-1.9l7.4-25l-0.3-0.1l-17.4,21.9l-4.7-1.4l-2.7-27.9
		l-0.3-0.1l-7.4,25.1l-6.3-1.9l10.7-36.4L-321.6-134.1z"/>
	<path d="M-256.8-98.3c-3.5-2.5-6.8-2.4-8.5-0.1c-1.9,2.5,0,5.6,2.1,8l2.3,2.8c3.8,4.5,6.4,10.1,2.5,15.4c-4,5.4-10.9,5.9-18.3,0.5
		c-7.1-5.2-9.1-12-4.9-18.2l5.5,4c-2.1,3.4-0.6,6.9,2.9,9.5c3.6,2.7,7.4,2.7,9.3,0.1c1.7-2.4,0.3-5-2.4-8.3l-2.8-3.5
		c-4.1-5-5.3-9.8-2.1-14.2c4-5.4,11.4-5.5,17.9-0.8c6.5,4.8,8.2,11.7,4.5,16.9l-5.3-3.9C-252.5-92.7-253.5-95.9-256.8-98.3z"/>
	<path d="M-232.7-86.9l4.5,5.9l-18,22.4l0.2,0.3l26.6-11.2l4.1,5.3L-233-41.4l0.2,0.3l26.3-11.6l4.5,5.9l-36.7,14.6l-4.1-5.4
		l16.5-22.2l-0.2-0.2l-25.8,10.2l-4.1-5.4L-232.7-86.9z"/>
	<path d="M-229.7-13.8l-2.9-6.2l34.4-16.1l2.9,6.2L-229.7-13.8z"/>
	<path d="M-187.3-9.7l-24.1,17.5l0.1,0.4l29.4,4.5l2,8.2l-36.9,9l-1.6-6.4l25.4-6.2l-0.1-0.3l-27.7-4.1L-222,8l22.8-16.3l-0.1-0.3
		l-25.4,6.2l-1.6-6.4l36.9-9L-187.3-9.7z"/>
	<path d="M-185.9,64.4c0.5-4.3-1.3-7-4.2-7.4c-3.1-0.4-4.8,2.8-5.9,5.8l-1.3,3.4c-2,5.5-5.6,10.6-12.1,9.9
		c-6.6-0.8-10.6-6.5-9.6-15.6c1-8.8,5.8-13.9,13.4-13.3l-0.8,6.7c-4-0.2-6.3,2.9-6.8,7.2c-0.5,4.5,1.3,7.8,4.5,8.1
		c2.9,0.3,4.5-2.2,6-6.2l1.6-4.2c2.3-6,5.8-9.5,11.3-8.9c6.7,0.7,10.5,7.2,9.6,15.1c-0.9,8-6,13-12.4,12.4l0.7-6.6
		C-188.6,70.9-186.4,68.5-185.9,64.4z"/>
	<path d="M-183.7,90.9l-2.8,6.8l-28.4-4.3l-0.1,0.3l23,17.4l-2.6,6.2l-28.6-3.9l-0.1,0.3l23.2,17l-2.8,6.8l-31-24.4l2.6-6.3
		l27.5,3.1l0.1-0.3l-21.7-17.2l2.6-6.3L-183.7,90.9z"/>
	<path d="M-245.5,130.2l3.9-5.6l31.2,21.7l-3.9,5.6L-245.5,130.2z"/>
	<path d="M-227.8,168.9l-27.1-12.2l-0.3,0.3l10.8,27.7l-6.1,5.8l-26.2-27.5l4.8-4.5l18,18.9l0.3-0.2l-10.3-26l3.6-3.4l25.5,11.6
		l0.3-0.2l-18-18.9l4.8-4.5l26.2,27.5L-227.8,168.9z"/>
	<path d="M-291.2,207.2c3.9-1.7,5.4-4.7,4.3-7.3c-1.2-2.9-4.9-2.8-8-2.2l-3.6,0.6c-5.8,1.1-12,0.5-14.6-5.5
		c-2.7-6.1,0.3-12.4,8.7-16.1c8.1-3.6,14.9-1.9,18.2,4.9l-6.2,2.7c-1.9-3.5-5.7-4-9.6-2.2c-4.1,1.8-6.1,5-4.8,8
		c1.2,2.7,4.2,2.8,8.4,2.1l4.4-0.7c6.4-1,11.2,0.3,13.4,5.3c2.7,6.1-1,12.7-8.3,15.9c-7.4,3.3-14.2,1.3-16.9-4.5l6.1-2.7
		C-298.2,208.1-295,208.8-291.2,207.2z"/>
	<path d="M-313.1,222.4l-7.3,1l-10.5-26.7l-0.3,0l-3.5,28.6l-6.7,0.9l-10.9-26.7l-0.3,0l-3.1,28.6l-7.3,1l5.6-39l6.7-0.9l11.1,25.4
		l0.3,0l4-27.4l6.7-0.9L-313.1,222.4z"/>
	<path d="M-378,188.5l6.9,0.6l-3.3,37.8l-6.9-0.6L-378,188.5z"/>
	<path d="M-402.7,223.1l-3.1-29.6l-0.4-0.1l-18.6,23.2l-8.1-2.4l10.7-36.4l6.3,1.9l-7.3,25l0.3,0.1l17.4-22l4.7,1.4l2.7,27.9
		l0.3,0.1l7.4-25.1l6.3,1.9l-10.7,36.4L-402.7,223.1z"/>
	<path d="M-467.6,187.4c3.5,2.5,6.8,2.4,8.5,0.1c1.9-2.5,0-5.6-2.1-8l-2.3-2.8c-3.8-4.5-6.4-10.1-2.5-15.4c4-5.4,10.9-5.9,18.3-0.5
		c7.1,5.2,9.1,12,4.9,18.2l-5.5-4c2.1-3.4,0.6-6.9-2.9-9.5c-3.6-2.7-7.4-2.7-9.3-0.1c-1.7,2.4-0.3,5,2.4,8.3l2.8,3.5
		c4.1,5,5.4,9.8,2.1,14.2c-4,5.4-11.4,5.5-17.9,0.8c-6.5-4.8-8.2-11.7-4.5-16.9l5.3,3.9C-472,181.9-470.9,185-467.6,187.4z"/>
	<path d="M-491.8,176.1l-4.5-5.9l18-22.4l-0.2-0.3l-26.6,11.2l-4.1-5.3l17.7-22.8l-0.2-0.3l-26.3,11.6l-4.5-5.9l36.6-14.7l4.1,5.4
		l-16.5,22.3l0.2,0.2l25.8-10.2l4.1,5.4L-491.8,176.1z"/>
	<path d="M-494.9,102.9l2.9,6.2l-34.3,16.2l-2.9-6.2L-494.9,102.9z"/>
	<path d="M-537.2,98.9l24.1-17.5l-0.1-0.4l-29.4-4.4l-2-8.2l36.9-9l1.6,6.4l-25.3,6.2l0.1,0.3l27.7,4l1.2,4.8l-22.8,16.4l0.1,0.3
		l25.4-6.2l1.6,6.4l-36.9,9L-537.2,98.9z"/>
</g>
<circle cx="70.3" cy="-375.8" r="132.7"/>
<g>
	<defs>
		<circle id="SVGID_1_" cx="70.3" cy="-375.8" r="116.6"/>
	</defs>
	<clipPath id="SVGID_2_">
		<use xlink:href="#SVGID_1_"  style="overflow:visible;"/>
	</clipPath>
	<ellipse class="st1" cx="70.3" cy="-375.8" rx="62.8" ry="114.3"/>
	<ellipse class="st1" cx="70.3" cy="-488.4" rx="134.8" ry="63.8"/>
	<ellipse class="st1" cx="70.3" cy="-263.9" rx="136.8" ry="63.8"/>
	<line class="st1" x1="70.3" y1="-963.5" x2="70.3" y2="-186.3"/>
	<line class="st1" x1="458.9" y1="-376" x2="-318.3" y2="-376"/>
	<use xlink:href="#SVGID_1_"  style="overflow:visible;fill:none;stroke:#FFFFFF;stroke-width:12;stroke-miterlimit:10;"/>
</g>
<g>
	<defs>
		<circle id="SVGID_3_" cx="134.4" cy="134.9" r="127.2"/>
	</defs>
	<clipPath id="SVGID_4_">
		<use xlink:href="#SVGID_3_"  style="overflow:visible;"/>
	</clipPath>
	<ellipse class="st2" cx="134.4" cy="134.9" rx="71.5" ry="127.2"/>
	<ellipse class="st2" cx="134.4" cy="12" rx="132.2" ry="69.6"/>
	<ellipse class="st2" cx="134.4" cy="257" rx="132.2" ry="69.6"/>
	<line class="st2" x1="134.4" y1="-506.4" x2="134.4" y2="341.6"/>
	<line class="st2" x1="558.4" y1="134.6" x2="-289.6" y2="134.6"/>
	<g class="st3">
		<defs>
			<circle id="SVGID_5_" cx="601.4" cy="496.9" r="127.2"/>
		</defs>
		<clipPath id="SVGID_6_">
			<use xlink:href="#SVGID_5_"  style="overflow:visible;"/>
		</clipPath>
		<ellipse class="st4" cx="601.4" cy="496.9" rx="71.5" ry="127.2"/>
		<ellipse class="st4" cx="601.4" cy="374" rx="132.2" ry="69.6"/>
		<ellipse class="st4" cx="601.4" cy="619" rx="132.2" ry="69.6"/>
		<line class="st4" x1="601.4" y1="-144.4" x2="601.4" y2="703.6"/>
		<line class="st4" x1="1025.4" y1="496.6" x2="177.4" y2="496.6"/>
		<use xlink:href="#SVGID_5_"  style="overflow:visible;fill:none;stroke:#000000;stroke-width:12;stroke-miterlimit:10;"/>
	</g>
	<g class="st3">
		<path d="M136.2-8.5h1v7.2h3.5v0.9h-4.5V-8.5z"/>
		<path d="M146.9-3.3c0,2.1-1.5,3.1-2.9,3.1c-1.6,0-2.8-1.2-2.8-3c0-1.9,1.3-3.1,2.9-3.1C145.7-6.3,146.9-5.1,146.9-3.3z M142.3-3.3
			C142.3-2,143-1,144-1c1,0,1.8-0.9,1.8-2.3c0-1-0.5-2.2-1.7-2.2C142.8-5.5,142.3-4.4,142.3-3.3z"/>
		<path d="M148.2-4.4c0-0.7,0-1.3,0-1.8h0.9l0,1.1h0c0.3-0.8,0.9-1.3,1.6-1.3c0.1,0,0.2,0,0.3,0v1c-0.1,0-0.2,0-0.4,0
			c-0.7,0-1.3,0.6-1.4,1.4c0,0.1,0,0.3,0,0.5v3.1h-1V-4.4z"/>
		<path d="M152.6-3.1c0,1.4,0.9,2,2,2c0.8,0,1.2-0.1,1.6-0.3l0.2,0.8c-0.4,0.2-1,0.4-1.9,0.4c-1.8,0-2.9-1.2-2.9-2.9s1-3.1,2.7-3.1
			c1.9,0,2.4,1.7,2.4,2.7c0,0.2,0,0.4,0,0.5H152.6z M155.7-3.8c0-0.7-0.3-1.7-1.5-1.7c-1.1,0-1.5,1-1.6,1.7H155.7z"/>
		<path d="M158-4.6c0-0.6,0-1.1,0-1.6h0.9l0,0.9h0c0.3-0.6,0.9-1.1,1.8-1.1c0.8,0,1.4,0.5,1.6,1.2h0c0.2-0.3,0.4-0.6,0.6-0.8
			c0.3-0.3,0.7-0.4,1.3-0.4c0.8,0,1.9,0.5,1.9,2.5v3.4h-1v-3.3c0-1.1-0.4-1.8-1.3-1.8c-0.6,0-1.1,0.4-1.2,1c0,0.1-0.1,0.3-0.1,0.5
			v3.6h-1v-3.5c0-0.9-0.4-1.6-1.2-1.6c-0.7,0-1.1,0.5-1.3,1.1c-0.1,0.2-0.1,0.3-0.1,0.5v3.5h-1V-4.6z"/>
		<path d="M171.8-7.8c0,0.4-0.3,0.6-0.7,0.6c-0.4,0-0.6-0.3-0.6-0.6c0-0.4,0.3-0.7,0.7-0.7C171.5-8.5,171.8-8.2,171.8-7.8z
			 M170.6-0.4v-5.8h1.1v5.8H170.6z"/>
		<path d="M173.4-4.3c0-0.7,0-1.3,0-1.9h0.9l0,1h0c0.4-0.7,1.1-1.1,2.1-1.1c1.4,0,2.5,1.2,2.5,3c0,2.1-1.3,3.1-2.6,3.1
			c-0.8,0-1.4-0.3-1.8-0.9h0V2h-1V-4.3z M174.4-2.7c0,0.2,0,0.3,0,0.4c0.2,0.7,0.8,1.2,1.6,1.2c1.1,0,1.8-0.9,1.8-2.2
			c0-1.2-0.6-2.2-1.7-2.2c-0.7,0-1.4,0.5-1.6,1.3c0,0.1-0.1,0.3-0.1,0.4V-2.7z"/>
		<path d="M180.1-1.4c0.3,0.2,0.9,0.4,1.4,0.4c0.8,0,1.1-0.4,1.1-0.9c0-0.5-0.3-0.8-1.1-1.1c-1-0.4-1.5-0.9-1.5-1.6
			c0-0.9,0.8-1.7,2-1.7c0.6,0,1.1,0.2,1.4,0.4l-0.3,0.8c-0.2-0.1-0.6-0.3-1.2-0.3c-0.6,0-1,0.4-1,0.8c0,0.5,0.3,0.7,1.1,1
			c1,0.4,1.5,0.9,1.5,1.8c0,1-0.8,1.7-2.2,1.7c-0.6,0-1.2-0.2-1.6-0.4L180.1-1.4z"/>
		<path d="M189.8-2c0,0.6,0,1.1,0,1.6h-0.9l-0.1-0.9h0c-0.3,0.5-0.9,1.1-1.9,1.1c-0.9,0-2-0.5-2-2.5v-3.4h1.1V-3
			c0,1.1,0.3,1.8,1.3,1.8c0.7,0,1.2-0.5,1.4-1c0.1-0.2,0.1-0.3,0.1-0.5v-3.6h1.1V-2z"/>
		<path d="M191.6-4.6c0-0.6,0-1.1,0-1.6h0.9l0,0.9h0c0.3-0.6,0.9-1.1,1.8-1.1c0.8,0,1.4,0.5,1.6,1.2h0c0.2-0.3,0.4-0.6,0.6-0.8
			c0.3-0.3,0.7-0.4,1.3-0.4c0.8,0,1.9,0.5,1.9,2.5v3.4h-1v-3.3c0-1.1-0.4-1.8-1.3-1.8c-0.6,0-1.1,0.4-1.2,1c0,0.1-0.1,0.3-0.1,0.5
			v3.6h-1v-3.5c0-0.9-0.4-1.6-1.2-1.6c-0.7,0-1.1,0.5-1.3,1.1c-0.1,0.2-0.1,0.3-0.1,0.5v3.5h-1V-4.6z"/>
	</g>
	<use xlink:href="#SVGID_3_"  style="overflow:visible;fill:none;stroke:#DDDCE1;stroke-width:12;stroke-miterlimit:10;"/>
</g>
<g>
</g>
<g>
</g>
<g>
</g>
<g>
</g>
<g>
</g>
<g>
</g>
<g>
</g>
<g>
</g>
<g>
</g>
<g>
</g>
<g>
</g>
<g>
</g>
<g>
</g>
<g>
</g>
<g>
</g>
</svg>
