<?xml version="1.0" encoding="UTF-8"?>
<svg width="607px" height="390px" viewBox="0 0 607 390" version="1.1" xmlns="http://www.w3.org/2000/svg" xmlns:xlink="http://www.w3.org/1999/xlink">
    <!-- Generator: Sketch 60 (88103) - https://sketch.com -->
    <title>Group 2</title>
    <desc>Created with Sketch.</desc>
    <g id="Desktop" stroke="none" stroke-width="1" fill="none" fill-rule="evenodd">
        <g id="Group-2" fill="#313131">
            <polygon id="Fill-16497" points="130 217 173 217 173 173 130 173"></polygon>
            <polyline id="Fill-16498" points="130 390 173 390 173 347 87 347 87 390 130 390"></polyline>
            <polyline id="Fill-16499" points="130 86.5 130 43 87 43 87 130 130 130 130 86.5"></polyline>
            <polygon id="Fill-16500" points="43 173 87 173 87 130 43 130"></polygon>
            <polyline id="Fill-16501" points="303.572431 260.333333 260.141354 260.333333 260.141354 217 173.286215 217 173.286215 260.333333 129.858646 260.333333 129.858646 217 43 217 43 347 86.4310773 347 86.4310773 303.666667 260.141354 303.666667 260.141354 347 303.572431 347 303.572431 303.666667 347 303.666667 347 260.333333 303.572431 260.333333"></polyline>
            <polyline id="Fill-16502" points="520.201402 346.666667 520.201402 390 563.600701 390 563.600701 303.333333 607 303.333333 607 216.666667 520.201402 216.666667 520.201402 173.333333 433.399299 173.333333 433.399299 216.666667 476.798598 216.666667 476.798598 260 520.201402 260 520.201402 303.333333 476.798598 303.333333 476.798598 260 433.399299 260 433.399299 216.666667 390 216.666667 390 130 346.600701 130 346.600701 86.6666667 303.201402 86.6666667 303.201402 0 259.798598 0 259.798598 43.3333333 216.399299 43.3333333 216.399299 86.6666667 173 86.6666667 173 130 303.201402 130 303.201402 173.333333 346.600701 173.333333 346.600701 260 390 260 390 303.333333 346.600701 303.333333 346.600701 346.666667 433.399299 346.666667 433.399299 390 476.798598 390 476.798598 346.666667 520.201402 346.666667"></polyline>
            <polygon id="Fill-16503" points="0 217 43 217 43 173 0 173"></polygon>
        </g>
    </g>
</svg>