<?xml version="1.0" encoding="UTF-8"?>
<svg width="975px" height="927px" viewBox="0 0 975 927" version="1.1" xmlns="http://www.w3.org/2000/svg" xmlns:xlink="http://www.w3.org/1999/xlink">
    <!-- Generator: Sketch 60 (88103) - https://sketch.com -->
    <title>Pixels</title>
    <desc>Created with Sketch.</desc>
    <g id="Desktop" stroke="none" stroke-width="1" fill="none" fill-rule="evenodd">
        <g id="Header" transform="translate(-705.000000, 0.000000)" fill="#B7B5FD">
            <g id="Pixels" transform="translate(705.000000, -90.000000)">
                <polygon id="Fill-2045" points="727 193 751 193 751 169 727 169"></polygon>
                <polygon id="Fill-2046" points="679 242 703 242 703 218 679 218"></polygon>
                <polygon id="Fill-2047" points="654 266 678 266 678 242 654 242"></polygon>
                <polygon id="Fill-2048" points="703 314 727 314 727 290 703 290"></polygon>
                <polygon id="Fill-2049" points="751 170 775 170 775 146 751 146"></polygon>
                <polygon id="Fill-2050" points="825 170 849 170 849 146 825 146"></polygon>
                <polygon id="Fill-2051" points="848 145 872 145 872 121 848 121"></polygon>
                <polygon id="Fill-2052" points="800 193 824 193 824 169 800 169"></polygon>
                <polygon id="Fill-2054" points="605 266 629 266 629 242 605 242"></polygon>
                <polygon id="Fill-2056" points="340 96 364 96 364 72 340 72"></polygon>
                <polyline id="Fill-2060" points="218.305239 193.752763 218.305239 218 242.5 218 242.5 193.752763 291 193.752763 291 169.494474 266.694761 169.494474 266.694761 121 194 121 194 169.494474 218.305239 169.494474 218.305239 193.752763"></polyline>
                <polygon id="Fill-2066" points="848 363 872 363 872 339 848 339"></polygon>
                <polygon id="Fill-2068" points="872 314 896 314 896 290 872 290"></polygon>
                <polygon id="Fill-2069" points="897 242 921 242 921 218 897 218"></polygon>
                <polygon id="Fill-2070" points="897 145 921 145 921 121 897 121"></polygon>
                <polyline id="Fill-2071" points="824.555809 314.494418 800 314.494418 800 339 849 339 849 290 824.555809 290 824.555809 314.494418"></polyline>
                <polygon id="Fill-2073" points="897 363 921 363 921 339 897 339"></polygon>
                <polygon id="Fill-2074" points="848 291 872 291 872 267 848 267"></polygon>
                <polyline id="Fill-2075" points="872.963526 72.7527629 897.036474 72.7527629 897.036474 97 921 97 921 0 897.036474 0 897.036474 48.5055258 849 48.5055258 849 72.7527629 872.963526 72.7527629"></polyline>
                <polygon id="Fill-2092" points="969 363 993 363 993 339 969 339"></polygon>
                <polyline id="Fill-2122" points="968 484.007292 968 460 944.036474 460 944.036474 484.007292 919.963526 484.007292 919.963526 508.003646 896 508.003646 896 532 944.036474 532 944.036474 508.003646 968 508.003646 968 484.007292"></polyline>
                <polyline id="Fill-2126" points="993 556.505582 993 532 969 532 969 581 993 581 993 556.505582"></polyline>
                <polyline id="Fill-2127" points="994 267 969.444191 267 969.444191 291.5 945 291.5 945 316 994 316 994 267"></polyline>
                <polyline id="Fill-2137" points="1018 605 993.805239 605 993.805239 629.007292 969.5 629.007292 969.5 605 945.305239 605 945.305239 629.007292 921 629.007292 921 653.003646 945.305239 653.003646 945.305239 677 969.5 677 969.5 653.003646 1018 653.003646 1018 605"></polyline>
                <polygon id="Fill-2138" points="776 726 800 726 800 702 776 702"></polygon>
                <polygon id="Fill-2148" points="969 896 993 896 993 872 969 872"></polygon>
                <polygon id="Fill-2149" points="776 1017 800 1017 800 993 776 993"></polygon>
                <polygon id="Fill-2154" points="921 412 945 412 945 388 921 388"></polygon>
                <polygon id="Fill-2155" points="897 435 921 435 921 411 897 411"></polygon>
                <polygon id="Fill-2156" points="824 435 873 435 873 411 824 411"></polygon>
                <polygon id="Fill-2157" points="776 484 800 484 800 460 776 460"></polygon>
                <polygon id="Fill-2158" points="825 726 849 726 849 702 825 702"></polygon>
                <polygon id="Fill-2159" points="800 459 824 459 824 435 800 435"></polygon>
                <polygon id="Fill-2160" points="872 412 896 412 896 388 872 388"></polygon>
                <polygon id="Fill-2161" points="848 556 872 556 872 532 848 532"></polygon>
                <polyline id="Fill-2162" points="872 677.494418 872 653 848 653 848 702 872 702 872 677.494418"></polyline>
                <polygon id="Fill-2164" points="800 508 849 508 849 484 800 484"></polygon>
                <polygon id="Fill-2165" points="848 484 872 484 872 460 848 460"></polygon>
                <polyline id="Fill-2166" points="800 556.505526 800 508 775.555809 508 775.555809 580.752763 751 580.752763 751 605 800 605 800 556.505526"></polyline>
                <polygon id="Fill-2194" points="49 193 73 193 73 169 49 169"></polygon>
                <polygon id="Fill-2195" points="267 580 291 580 291 556 267 556"></polygon>
                <polygon id="Fill-2198" points="0 193 24 193 24 169 0 169"></polygon>
                <polyline id="Fill-2199" points="25 217.5 25 242 49 242 49 193 25 193 25 217.5"></polyline>
                <polygon id="Fill-2201" points="461 580 485 580 485 556 461 556"></polygon>
                <polygon id="Fill-2202" points="412 533 436 533 436 509 412 509"></polygon>
                <polygon id="Fill-2203" points="388 677 412 677 412 653 388 653"></polygon>
                <polyline id="Fill-2204" points="437 434.329637 437 507.329637 461.036419 507.329637 461.036419 531.659274 484.963581 531.659274 484.963581 556 509 556 509 507.329637 484.963581 507.329637 484.963581 483 509 483 509 434.329637 484.963581 434.329637 484.963581 410 461.036419 410 461.036419 434.329637 437 434.329637"></polyline>
                <polygon id="Fill-2205" points="412 654 436 654 436 630 412 630"></polygon>
                <polygon id="Fill-2206" points="363 533 387 533 387 509 363 509"></polygon>
                <polyline id="Fill-2207" points="412 581.996354 387.555809 581.996354 387.555809 558 363 558 363 605.992708 387.555809 605.992708 387.555809 630 412 630 412 581.996354"></polyline>
                <polygon id="Fill-2208" points="484 193 508 193 508 169 484 169"></polygon>
                <polygon id="Fill-2209" points="316 121 340 121 340 97 316 97"></polygon>
                <polyline id="Fill-2210" points="726.555809 630 702 630 702 679 751 679 751 654.5 726.555809 654.5 726.555809 630"></polyline>
                <polygon id="Fill-2211" points="316 170 340 170 340 146 316 146"></polygon>
                <polyline id="Fill-2212" points="387.555809 484 412 484 412 460 363 460 363 484 387.555809 484"></polyline>
                <polyline id="Fill-2213" points="435.963526 145.003646 435.963526 169 484 169 484 121.007292 460.036474 121.007292 460.036474 97 412 97 412 121.007292 435.963526 121.007292 435.963526 145.003646"></polyline>
                <polygon id="Fill-2214" points="291 145 315 145 315 121 291 121"></polygon>
                <polyline id="Fill-2215" points="388 339 388 290 339 290 339 314.494418 363.444191 314.494418 363.444191 339 388 339"></polyline>
                <polyline id="Fill-2217" points="267 242.494418 267 267 316 267 316 242.494418 291.555809 242.494418 291.555809 218 267 218 267 242.494418"></polyline>
                <polyline id="Fill-2218" points="412 217.5 412 193 363 193 363 242 387.555809 242 387.555809 217.5 412 217.5"></polyline>
                <polyline id="Fill-2219" points="363 146 412 146 412 121.505582 387.555809 121.505582 387.555809 97 363 97 363 146"></polyline>
                <polyline id="Fill-2220" points="629.5 484.505582 654 484.505582 654 460 605 460 605 509 629.5 509 629.5 484.505582"></polyline>
                <polyline id="Fill-2221" points="582 677.494418 582 702 606 702 606 653 582 653 582 677.494418"></polyline>
                <polyline id="Fill-2222" points="533 435 533 484 582 484 582 459.494418 557.555809 459.494418 557.555809 435 533 435"></polyline>
                <polygon id="Fill-2223" points="582 629 606 629 606 605 582 605"></polygon>
                <polyline id="Fill-2224" points="582 509 533 509 533 581 557.555809 581 557.555809 532.996354 582 532.996354 582 509"></polyline>
                <polygon id="Fill-2225" points="582 387 606 387 606 363 582 363"></polygon>
                <polyline id="Fill-2226" points="484.944571 386.992708 558 386.992708 558 362.996354 533.611238 362.996354 533.611238 339 509.333333 339 509.333333 362.996354 460.666667 362.996354 460.666667 339 412 339 412 386.992708 436.277904 386.992708 436.277904 411 460.666667 411 460.666667 386.992708 484.944571 386.992708"></polyline>
                <polygon id="Fill-2227" points="605 363 629 363 629 339 605 339"></polygon>
                <polygon id="Fill-2228" points="558 412 582 412 582 388 558 388"></polygon>
                <polygon id="Fill-2229" points="703 412 727 412 727 388 703 388"></polygon>
                <polyline id="Fill-2230" points="630 580.5 630 605 654 605 654 556 630 556 630 580.5"></polyline>
                <polygon id="Fill-2231" points="727 387 751 387 751 363 727 363"></polygon>
                <polyline id="Fill-2232" points="678.036474 411.003646 678.036474 363 653.963526 363 653.963526 386.996354 630 386.996354 630 411.003646 653.963526 411.003646 653.963526 435 702 435 702 411.003646 678.036474 411.003646"></polyline>
                <polygon id="Fill-2233" points="654 556 678 556 678 532 654 532"></polygon>
                <polygon id="Fill-2234" points="679 363 703 363 703 339 679 339"></polygon>
                <polygon id="Fill-2235" points="340 387 364 387 364 363 340 363"></polygon>
                <polyline id="Fill-2236" points="242 266.007292 218.036474 266.007292 218.036474 242 193.963526 242 193.963526 290.003646 170 290.003646 170 314 242 314 242 266.007292"></polyline>
                <polygon id="Fill-2237" points="242 338 266 338 266 314 242 314"></polygon>
                <polygon id="Fill-2238" points="195 363 244 363 244 339 195 339"></polygon>
                <polygon id="Fill-2239" points="242 387 266 387 266 363 242 363"></polygon>
                <polygon id="Fill-2240" points="121 266 145 266 145 242 121 242"></polygon>
                <polygon id="Fill-2241" points="146 291 170 291 170 267 146 267"></polygon>
                <polyline id="Fill-2242" points="123 194.007292 123 170 98.4441913 170 98.4441913 218.003646 74 218.003646 74 242 123 242 123 194.007292"></polyline>
                <polyline id="Fill-2243" points="654 314.494418 654 290 630 290 630 339 654 339 654 314.494418"></polyline>
                <polyline id="Fill-2244" points="315.444191 338.505582 315.444191 314 291 314 291 363 340 363 340 338.505582 315.444191 338.505582"></polyline>
                <polyline id="Fill-2245" points="363 388 363 437 387.555809 437 387.555809 412.505582 412 412.505582 412 388 363 388"></polyline>
                <polyline id="Fill-2246" points="314.963526 435 314.963526 507.597794 291 507.597794 291 531.793383 314.963526 531.793383 314.963526 556 339.036474 556 339.036474 459.195589 363 459.195589 363 435 314.963526 435"></polyline>
                <polygon id="Fill-2247" points="316 412 340 412 340 388 316 388"></polygon>
                <polyline id="Fill-2248" points="194.444191 387.494418 194.444191 363 170 363 170 412 219 412 219 387.494418 194.444191 387.494418"></polyline>
                <polyline id="Fill-2249" points="339.036474 605 291 605 291 629.007292 314.963526 629.007292 314.963526 677 363 677 363 629.007292 339.036474 629.007292 339.036474 605"></polyline>
                <polyline id="Fill-2250" points="847 605 798.963526 605 798.963526 629.505582 775 629.505582 775 654 847 654 847 605"></polyline>
                <polyline id="Fill-2252" points="751.194761 265.752763 751.194761 290 775.5 290 775.5 241.494474 799.694761 241.494474 799.694761 265.752763 824 265.752763 824 217.247237 799.694761 217.247237 799.694761 193 751.194761 193 751.194761 217.247237 727 217.247237 727 241.494474 751.194761 241.494474 751.194761 265.752763"></polyline>
                <polyline id="Fill-2253" points="291 72.5 291 48 267 48 267 97 291 97 291 72.5"></polyline>
                <polyline id="Fill-2254" points="170 217.752763 170 145 146 145 146 242 170 242 170 217.752763"></polyline>
                <polygon id="Fill-2255" points="388 266 412 266 412 242 388 242"></polygon>
                <polygon id="Fill-2256" points="582 314 606 314 606 290 582 290"></polygon>
                <polygon id="Fill-2257" points="558 338 582 338 582 314 558 314"></polygon>
                <polygon id="Fill-2258" points="921 193 970 193 970 169 921 169"></polygon>
                <polygon id="Fill-2261" points="897 629 921 629 921 605 897 605"></polygon>
                <polygon id="Fill-2266" points="146 605 170 605 170 581 146 581"></polygon>
                <polyline id="Fill-2268" points="170 580.5 170 605 194 605 194 556 170 556 170 580.5"></polyline>
            </g>
        </g>
    </g>
</svg>