<?xml version="1.0" encoding="UTF-8"?>
<svg width="1308px" height="1697px" viewBox="0 0 1308 1697" version="1.1" xmlns="http://www.w3.org/2000/svg" xmlns:xlink="http://www.w3.org/1999/xlink">
    <!-- Generator: Sketch 60 (88103) - https://sketch.com -->
    <title>Pixels</title>
    <desc>Created with Sketch.</desc>
    <g id="Desktop" stroke="none" stroke-width="1" fill="none" fill-rule="evenodd">
        <g id="Pixels" transform="translate(654.000000, 848.500000) rotate(90.000000) translate(-654.000000, -848.500000) translate(-194.000000, 195.000000)" fill="#B7B5FD">
            <polyline id="Fill-2018" points="1355.5 291.5 1380 291.5 1380 267 1331 267 1331 316 1355.5 316 1355.5 291.5"></polyline>
            <polygon id="Fill-2019" points="1356 387 1380 387 1380 363 1356 363"></polygon>
            <polygon id="Fill-2020" points="1332 363 1356 363 1356 339 1332 339"></polygon>
            <polygon id="Fill-2021" points="1332 96 1356 96 1356 72 1332 72"></polygon>
            <polygon id="Fill-2022" points="1067 145 1091 145 1091 121 1067 121"></polygon>
            <polygon id="Fill-2023" points="1381 338 1405 338 1405 314 1381 314"></polygon>
            <polygon id="Fill-2024" points="1284 338 1333 338 1333 314 1284 314"></polygon>
            <polyline id="Fill-2025" points="1550 605.992708 1550 558 1526 558 1526 630 1550 630 1550 605.992708"></polyline>
            <polygon id="Fill-2026" points="1114 49 1138 49 1138 25 1114 25"></polygon>
            <polygon id="Fill-2027" points="1042 121 1066 121 1066 97 1042 97"></polygon>
            <polygon id="Fill-2028" points="1211 72 1235 72 1235 48 1211 48"></polygon>
            <polygon id="Fill-2029" points="1211 24 1235 24 1235 0 1211 0"></polygon>
            <polygon id="Fill-2030" points="1163 242 1212 242 1212 218 1163 218"></polygon>
            <polygon id="Fill-2031" points="1332 145 1356 145 1356 121 1332 121"></polygon>
            <polygon id="Fill-2032" points="1477 533 1501 533 1501 509 1477 509"></polygon>
            <polyline id="Fill-2033" points="1405 388 1454 388 1454 363.5 1429.44419 363.5 1429.44419 339 1405 339 1405 388"></polyline>
            <polygon id="Fill-2034" points="1526 72 1550 72 1550 48 1526 48"></polygon>
            <polygon id="Fill-2035" points="1526 726 1550 726 1550 702 1526 702"></polygon>
            <polygon id="Fill-2036" points="1502 145 1526 145 1526 121 1502 121"></polygon>
            <polygon id="Fill-2037" points="1430 484 1454 484 1454 460 1430 460"></polygon>
            <polygon id="Fill-2038" points="1405 193 1429 193 1429 169 1405 169"></polygon>
            <polygon id="Fill-2039" points="1405 314 1429 314 1429 290 1405 290"></polygon>
            <polygon id="Fill-2040" points="1405 145 1429 145 1429 121 1405 121"></polygon>
            <polygon id="Fill-2041" points="1430 49 1454 49 1454 25 1430 25"></polygon>
            <polygon id="Fill-2042" points="1453 217 1477 217 1477 193 1453 193"></polygon>
            <polygon id="Fill-2043" points="1453 170 1477 170 1477 146 1453 146"></polygon>
            <polygon id="Fill-2044" points="1356 242 1380 242 1380 218 1356 218"></polygon>
            <polygon id="Fill-2045" points="727 193 751 193 751 169 727 169"></polygon>
            <polygon id="Fill-2046" points="679 242 703 242 703 218 679 218"></polygon>
            <polygon id="Fill-2047" points="654 266 678 266 678 242 654 242"></polygon>
            <polygon id="Fill-2048" points="703 314 727 314 727 290 703 290"></polygon>
            <polygon id="Fill-2049" points="751 170 775 170 775 146 751 146"></polygon>
            <polygon id="Fill-2050" points="825 170 849 170 849 146 825 146"></polygon>
            <polygon id="Fill-2051" points="848 145 872 145 872 121 848 121"></polygon>
            <polygon id="Fill-2052" points="800 193 824 193 824 169 800 169"></polygon>
            <polygon id="Fill-2053" points="484 72 508 72 508 48 484 48"></polygon>
            <polygon id="Fill-2054" points="605 266 629 266 629 242 605 242"></polygon>
            <polygon id="Fill-2055" points="363 72 412 72 412 48 363 48"></polygon>
            <polygon id="Fill-2056" points="340 96 364 96 364 72 340 72"></polygon>
            <polyline id="Fill-2057" points="435.927052 24.4944179 435.927052 49 460 49 460 0 388 0 388 24.4944179 435.927052 24.4944179"></polyline>
            <polygon id="Fill-2058" points="316 72 340 72 340 48 316 48"></polygon>
            <polygon id="Fill-2059" points="316 24 340 24 340 0 316 0"></polygon>
            <polyline id="Fill-2060" points="218.305239 193.752763 218.305239 218 242.5 218 242.5 193.752763 291 193.752763 291 169.494474 266.694761 169.494474 266.694761 121 194 121 194 169.494474 218.305239 169.494474 218.305239 193.752763"></polyline>
            <polygon id="Fill-2061" points="993 217 1017 217 1017 193 993 193"></polygon>
            <polygon id="Fill-2062" points="969 72 993 72 993 48 969 48"></polygon>
            <polygon id="Fill-2063" points="993 49 1017 49 1017 25 993 25"></polygon>
            <polygon id="Fill-2064" points="1018 242 1042 242 1042 218 1018 218"></polygon>
            <polygon id="Fill-2065" points="946 49 970 49 970 25 946 25"></polygon>
            <polygon id="Fill-2066" points="848 363 872 363 872 339 848 339"></polygon>
            <polyline id="Fill-2067" points="1017 121.505582 1017 97 993 97 993 146 1017 146 1017 121.505582"></polyline>
            <polygon id="Fill-2068" points="872 314 896 314 896 290 872 290"></polygon>
            <polygon id="Fill-2069" points="897 242 921 242 921 218 897 218"></polygon>
            <polygon id="Fill-2070" points="897 145 921 145 921 121 897 121"></polygon>
            <polyline id="Fill-2071" points="824.555809 314.494418 800 314.494418 800 339 849 339 849 290 824.555809 290 824.555809 314.494418"></polyline>
            <polygon id="Fill-2072" points="825 49 849 49 849 25 825 25"></polygon>
            <polygon id="Fill-2073" points="897 363 921 363 921 339 897 339"></polygon>
            <polygon id="Fill-2074" points="848 291 872 291 872 267 848 267"></polygon>
            <polyline id="Fill-2075" points="872.963526 72.7527629 897.036474 72.7527629 897.036474 97 921 97 921 0 897.036474 0 897.036474 48.5055258 849 48.5055258 849 72.7527629 872.963526 72.7527629"></polyline>
            <polyline id="Fill-2076" points="1550 314.494418 1550 290 1526 290 1526 339 1550 339 1550 314.494418"></polyline>
            <polygon id="Fill-2077" points="1235 798 1259 798 1259 774 1235 774"></polygon>
            <polygon id="Fill-2078" points="1332 872 1356 872 1356 848 1332 848"></polygon>
            <polyline id="Fill-2079" points="1306.96358 822.494418 1283.03642 822.494418 1283.03642 798 1259 798 1259 847 1331 847 1331 822.494418 1306.96358 822.494418"></polyline>
            <polyline id="Fill-2080" points="1404.55581 630 1380 630 1380 654 1429 654 1429 630 1404.55581 630"></polyline>
            <polygon id="Fill-2081" points="1356 629 1380 629 1380 605 1356 605"></polygon>
            <polygon id="Fill-2082" points="1381 605 1405 605 1405 581 1381 581"></polygon>
            <polyline id="Fill-2083" points="1210.69476 388 1210.69476 363.802206 1186.5 363.802206 1186.5 339.604412 1235 339.604412 1235 267 1210.69476 267 1210.69476 291.197794 1162.30524 291.197794 1162.30524 315.395588 1138 315.395588 1138 363.802206 1162.30524 363.802206 1162.30524 388 1210.69476 388"></polyline>
            <polygon id="Fill-2084" points="1139 412 1163 412 1163 388 1139 388"></polygon>
            <polygon id="Fill-2085" points="1163 435 1187 435 1187 411 1163 411"></polygon>
            <polygon id="Fill-2086" points="1502 872 1526 872 1526 848 1502 848"></polygon>
            <polygon id="Fill-2087" points="1356 896 1380 896 1380 872 1356 872"></polygon>
            <polyline id="Fill-2088" points="1210 919 1210 968 1259 968 1259 943.505582 1234.55581 943.505582 1234.55581 919 1210 919"></polyline>
            <polygon id="Fill-2089" points="1211 896 1235 896 1235 872 1211 872"></polygon>
            <polygon id="Fill-2090" points="1235 919 1259 919 1259 895 1235 895"></polygon>
            <polygon id="Fill-2091" points="1623 556 1647 556 1647 532 1623 532"></polygon>
            <polygon id="Fill-2092" points="969 363 993 363 993 339 969 339"></polygon>
            <polygon id="Fill-2093" points="1574 49 1598 49 1598 25 1574 25"></polygon>
            <polygon id="Fill-2094" points="1623 508 1647 508 1647 484 1623 484"></polygon>
            <polygon id="Fill-2095" points="1598 170 1622 170 1622 146 1598 146"></polygon>
            <polygon id="Fill-2096" points="1502 677 1526 677 1526 653 1502 653"></polygon>
            <polygon id="Fill-2097" points="1647 435 1671 435 1671 411 1647 411"></polygon>
            <polygon id="Fill-2098" points="1623 314 1647 314 1647 290 1623 290"></polygon>
            <polygon id="Fill-2099" points="1598 363 1622 363 1622 339 1598 339"></polygon>
            <polygon id="Fill-2100" points="1526 798 1550 798 1550 774 1526 774"></polygon>
            <polygon id="Fill-2101" points="1551 823 1575 823 1575 799 1551 799"></polygon>
            <polyline id="Fill-2102" points="1575 242.494418 1550.55581 242.494418 1550.55581 218 1526 218 1526 267 1575 267 1575 242.494418"></polyline>
            <polygon id="Fill-2103" points="1574 775 1598 775 1598 751 1574 751"></polygon>
            <polyline id="Fill-2104" points="1623 847.5 1623 872 1647 872 1647 823 1623 823 1623 847.5"></polyline>
            <polygon id="Fill-2105" points="1598 798 1622 798 1622 774 1598 774"></polygon>
            <polygon id="Fill-2106" points="1574 96 1623 96 1623 72 1574 72"></polygon>
            <polygon id="Fill-2107" points="1235 459 1259 459 1259 435 1235 435"></polygon>
            <polygon id="Fill-2108" points="1332 580 1356 580 1356 556 1332 556"></polygon>
            <polygon id="Fill-2109" points="1381 533 1405 533 1405 509 1381 509"></polygon>
            <polygon id="Fill-2110" points="1356 556 1380 556 1380 532 1356 532"></polygon>
            <polyline id="Fill-2111" points="1405 484.505582 1405 460 1333 460 1333 484.505582 1356.96353 484.505582 1356.96353 509 1380.92705 509 1380.92705 484.505582 1405 484.505582"></polyline>
            <polyline id="Fill-2112" points="1212 677.494418 1212 702 1236.03642 702 1236.03642 677.494418 1284 677.494418 1284 653 1212 653 1212 677.494418"></polyline>
            <polyline id="Fill-2113" points="1284 725.996354 1284 774 1308 774 1308 702 1284 702 1284 725.996354"></polyline>
            <polygon id="Fill-2114" points="1284 508 1333 508 1333 484 1284 484"></polygon>
            <polyline id="Fill-2115" points="1235 605.494418 1235 630 1259 630 1259 581 1235 581 1235 605.494418"></polyline>
            <polygon id="Fill-2116" points="1477 291 1501 291 1501 267 1477 267"></polygon>
            <polygon id="Fill-2117" points="1477 338 1501 338 1501 314 1477 314"></polygon>
            <polygon id="Fill-2118" points="1526 533 1550 533 1550 509 1526 509"></polygon>
            <polygon id="Fill-2119" points="1477 435 1501 435 1501 411 1477 411"></polygon>
            <polygon id="Fill-2120" points="1502 459 1526 459 1526 435 1502 435"></polygon>
            <polygon id="Fill-2121" points="1477 484 1501 484 1501 460 1477 460"></polygon>
            <polyline id="Fill-2122" points="968 484.007292 968 460 944.036474 460 944.036474 484.007292 919.963526 484.007292 919.963526 508.003646 896 508.003646 896 532 944.036474 532 944.036474 508.003646 968 508.003646 968 484.007292"></polyline>
            <polygon id="Fill-2123" points="1042 363 1066 363 1066 339 1042 339"></polygon>
            <polygon id="Fill-2124" points="1018 387 1042 387 1042 363 1018 363"></polygon>
            <polygon id="Fill-2125" points="993 459 1017 459 1017 435 993 435"></polygon>
            <polyline id="Fill-2126" points="993 556.505582 993 532 969 532 969 581 993 581 993 556.505582"></polyline>
            <polyline id="Fill-2127" points="994 267 969.444191 267 969.444191 291.5 945 291.5 945 316 994 316 994 267"></polyline>
            <polyline id="Fill-2128" points="1091 316 1091 267 1042 267 1042 291.5 1066.55581 291.5 1066.55581 316 1091 316"></polyline>
            <polygon id="Fill-2129" points="1114 217 1138 217 1138 193 1114 193"></polygon>
            <polyline id="Fill-2130" points="1259 387.494418 1259 363 1235 363 1235 412 1259 412 1259 387.494418"></polyline>
            <polygon id="Fill-2131" points="1211 435 1235 435 1235 411 1211 411"></polygon>
            <polygon id="Fill-2132" points="1090 533 1114 533 1114 509 1090 509"></polygon>
            <polyline id="Fill-2133" points="1138 484.505582 1138 460 1114 460 1114 509 1138 509 1138 484.505582"></polyline>
            <polyline id="Fill-2134" points="1089.96358 435 1114 435 1114 411 1042 411 1042 435 1089.96358 435"></polyline>
            <polyline id="Fill-2135" points="1115.03642 121 1138.96358 121 1138.96358 96.4944179 1163 96.4944179 1163 72 1091 72 1091 96.4944179 1115.03642 96.4944179 1115.03642 121"></polyline>
            <polygon id="Fill-2136" points="1090 751 1114 751 1114 727 1090 727"></polygon>
            <polyline id="Fill-2137" points="1018 605 993.805239 605 993.805239 629.007292 969.5 629.007292 969.5 605 945.305239 605 945.305239 629.007292 921 629.007292 921 653.003646 945.305239 653.003646 945.305239 677 969.5 677 969.5 653.003646 1018 653.003646 1018 605"></polyline>
            <polygon id="Fill-2138" points="776 726 800 726 800 702 776 702"></polygon>
            <polyline id="Fill-2139" points="1115 1235 1066 1235 1066 1307 1090.44419 1307 1090.44419 1258.99635 1115 1258.99635 1115 1235"></polyline>
            <polyline id="Fill-2140" points="1308.44419 944.505526 1333 944.505526 1333 896 1308.44419 896 1308.44419 920.247237 1284 920.247237 1284 993 1308.44419 993 1308.44419 944.505526"></polyline>
            <polygon id="Fill-2141" points="872 1235 921 1235 921 1211 872 1211"></polygon>
            <polyline id="Fill-2142" points="992.555809 1186 968 1186 968 1235 992.555809 1235 992.555809 1210.49442 1017 1210.49442 1017 1186 992.555809 1186"></polyline>
            <polygon id="Fill-2143" points="1067 654 1091 654 1091 630 1067 630"></polygon>
            <polyline id="Fill-2144" points="1259.96358 1042 1212 1042 1212 1065.99635 1236.03642 1065.99635 1236.03642 1090.00365 1259.96358 1090.00365 1259.96358 1114 1284 1114 1284 1065.99635 1259.96358 1065.99635 1259.96358 1042"></polyline>
            <polygon id="Fill-2145" points="1163 1161 1187 1161 1187 1137 1163 1137"></polygon>
            <polygon id="Fill-2146" points="1139 1089 1163 1089 1163 1065 1139 1065"></polygon>
            <polygon id="Fill-2147" points="1139 1017 1163 1017 1163 993 1139 993"></polygon>
            <polygon id="Fill-2148" points="969 896 993 896 993 872 969 872"></polygon>
            <polygon id="Fill-2149" points="776 1017 800 1017 800 993 776 993"></polygon>
            <polygon id="Fill-2152" points="1114 1307 1138 1307 1138 1283 1114 1283"></polygon>
            <polyline id="Fill-2153" points="1018.03647 1234.00729 1018.03647 1258.00365 970 1258.00365 970 1282 1042 1282 1042 1210 1018.03647 1210 1018.03647 1234.00729"></polyline>
            <polygon id="Fill-2154" points="921 412 945 412 945 388 921 388"></polygon>
            <polygon id="Fill-2155" points="897 435 921 435 921 411 897 411"></polygon>
            <polygon id="Fill-2156" points="824 435 873 435 873 411 824 411"></polygon>
            <polygon id="Fill-2157" points="776 484 800 484 800 460 776 460"></polygon>
            <polygon id="Fill-2158" points="825 726 849 726 849 702 825 702"></polygon>
            <polygon id="Fill-2159" points="800 459 824 459 824 435 800 435"></polygon>
            <polygon id="Fill-2160" points="872 412 896 412 896 388 872 388"></polygon>
            <polygon id="Fill-2161" points="848 556 872 556 872 532 848 532"></polygon>
            <polyline id="Fill-2162" points="872 677.494418 872 653 848 653 848 702 872 702 872 677.494418"></polyline>
            <polygon id="Fill-2163" points="897 1282 921 1282 921 1258 897 1258"></polygon>
            <polygon id="Fill-2164" points="800 508 849 508 849 484 800 484"></polygon>
            <polygon id="Fill-2165" points="848 484 872 484 872 460 848 460"></polygon>
            <polyline id="Fill-2166" points="800 556.505526 800 508 775.555809 508 775.555809 580.752763 751 580.752763 751 605 800 605 800 556.505526"></polyline>
            <polygon id="Fill-2167" points="1042 508 1066 508 1066 484 1042 484"></polygon>
            <polygon id="Fill-2168" points="1672 629 1696 629 1696 605 1672 605"></polygon>
            <polygon id="Fill-2169" points="1672 1161 1696 1161 1696 1137 1672 1137"></polygon>
            <polygon id="Fill-2170" points="1672 919 1696 919 1696 895 1672 895"></polygon>
            <polyline id="Fill-2171" points="1646.96358 1185.5 1599 1185.5 1599 1210 1671 1210 1671 1161 1646.96358 1161 1646.96358 1185.5"></polyline>
            <polygon id="Fill-2172" points="1623 1259 1647 1259 1647 1235 1623 1235"></polygon>
            <polygon id="Fill-2173" points="1623 702 1647 702 1647 653 1623 653"></polygon>
            <polygon id="Fill-2174" points="1647 605 1671 605 1671 581 1647 581"></polygon>
            <polygon id="Fill-2175" points="1672 314 1696 314 1696 290 1672 290"></polygon>
            <polyline id="Fill-2176" points="1598.44419 581 1574 581 1574 605 1623 605 1623 581 1598.44419 581"></polyline>
            <polygon id="Fill-2177" points="1623 629 1647 629 1647 605 1623 605"></polygon>
            <polygon id="Fill-2178" points="1647 726 1671 726 1671 702 1647 702"></polygon>
            <polygon id="Fill-2179" points="1598 654 1622 654 1622 630 1598 630"></polygon>
            <polygon id="Fill-2180" points="1477 919 1501 919 1501 895 1477 895"></polygon>
            <polyline id="Fill-2181" points="1429.44419 798.597794 1454 798.597794 1454 774.402206 1429.44419 774.402206 1429.44419 726 1405 726 1405 847 1429.44419 847 1429.44419 798.597794"></polyline>
            <polygon id="Fill-2182" points="1430 968 1454 968 1454 944 1430 944"></polygon>
            <polygon id="Fill-2183" points="1405 993 1429 993 1429 969 1405 969"></polygon>
            <polygon id="Fill-2184" points="1331 1114 1380 1114 1380 1090 1331 1090"></polygon>
            <polygon id="Fill-2185" points="1356 968 1380 968 1380 944 1356 944"></polygon>
            <polyline id="Fill-2186" points="1476.44419 823 1501 823 1501 799 1452 799 1452 823 1476.44419 823"></polyline>
            <polyline id="Fill-2187" points="1427.96358 944 1427.96358 895.5 1452 895.5 1452 847 1427.96358 847 1427.96358 871.255525 1404.03642 871.255525 1404.03642 919.744475 1380 919.744475 1380 944 1427.96358 944"></polyline>
            <polygon id="Fill-2188" points="1309 1017 1333 1017 1333 993 1309 993"></polygon>
            <polygon id="Fill-2189" points="1430 1114 1454 1114 1454 1090 1430 1090"></polygon>
            <polygon id="Fill-2190" points="1477 1017 1501 1017 1501 993 1477 993"></polygon>
            <polygon id="Fill-2191" points="1405 1040 1454 1040 1454 1016 1405 1016"></polygon>
            <polygon id="Fill-2192" points="1452 1138 1501 1138 1501 1114 1452 1114"></polygon>
            <polygon id="Fill-2194" points="49 193 73 193 73 169 49 169"></polygon>
            <polygon id="Fill-2195" points="267 580 291 580 291 556 267 556"></polygon>
            <polygon id="Fill-2198" points="0 193 24 193 24 169 0 169"></polygon>
            <polyline id="Fill-2199" points="25 217.5 25 242 49 242 49 193 25 193 25 217.5"></polyline>
            <polygon id="Fill-2201" points="461 580 485 580 485 556 461 556"></polygon>
            <polygon id="Fill-2202" points="412 533 436 533 436 509 412 509"></polygon>
            <polygon id="Fill-2203" points="388 677 412 677 412 653 388 653"></polygon>
            <polyline id="Fill-2204" points="437 434.329637 437 507.329637 461.036419 507.329637 461.036419 531.659274 484.963581 531.659274 484.963581 556 509 556 509 507.329637 484.963581 507.329637 484.963581 483 509 483 509 434.329637 484.963581 434.329637 484.963581 410 461.036419 410 461.036419 434.329637 437 434.329637"></polyline>
            <polygon id="Fill-2205" points="412 654 436 654 436 630 412 630"></polygon>
            <polygon id="Fill-2206" points="363 533 387 533 387 509 363 509"></polygon>
            <polyline id="Fill-2207" points="412 581.996354 387.555809 581.996354 387.555809 558 363 558 363 605.992708 387.555809 605.992708 387.555809 630 412 630 412 581.996354"></polyline>
            <polygon id="Fill-2208" points="484 193 508 193 508 169 484 169"></polygon>
            <polygon id="Fill-2209" points="316 121 340 121 340 97 316 97"></polygon>
            <polyline id="Fill-2210" points="726.555809 630 702 630 702 679 751 679 751 654.5 726.555809 654.5 726.555809 630"></polyline>
            <polygon id="Fill-2211" points="316 170 340 170 340 146 316 146"></polygon>
            <polyline id="Fill-2212" points="387.555809 484 412 484 412 460 363 460 363 484 387.555809 484"></polyline>
            <polyline id="Fill-2213" points="435.963526 145.003646 435.963526 169 484 169 484 121.007292 460.036474 121.007292 460.036474 97 412 97 412 121.007292 435.963526 121.007292 435.963526 145.003646"></polyline>
            <polygon id="Fill-2214" points="291 145 315 145 315 121 291 121"></polygon>
            <polyline id="Fill-2215" points="388 339 388 290 339 290 339 314.494418 363.444191 314.494418 363.444191 339 388 339"></polyline>
            <polyline id="Fill-2216" points="243 48.5055821 243 24 219 24 219 73 243 73 243 48.5055821"></polyline>
            <polyline id="Fill-2217" points="267 242.494418 267 267 316 267 316 242.494418 291.555809 242.494418 291.555809 218 267 218 267 242.494418"></polyline>
            <polyline id="Fill-2218" points="412 217.5 412 193 363 193 363 242 387.555809 242 387.555809 217.5 412 217.5"></polyline>
            <polyline id="Fill-2219" points="363 146 412 146 412 121.505582 387.555809 121.505582 387.555809 97 363 97 363 146"></polyline>
            <polyline id="Fill-2220" points="629.5 484.505582 654 484.505582 654 460 605 460 605 509 629.5 509 629.5 484.505582"></polyline>
            <polyline id="Fill-2221" points="582 677.494418 582 702 606 702 606 653 582 653 582 677.494418"></polyline>
            <polyline id="Fill-2222" points="533 435 533 484 582 484 582 459.494418 557.555809 459.494418 557.555809 435 533 435"></polyline>
            <polygon id="Fill-2223" points="582 629 606 629 606 605 582 605"></polygon>
            <polyline id="Fill-2224" points="582 509 533 509 533 581 557.555809 581 557.555809 532.996354 582 532.996354 582 509"></polyline>
            <polygon id="Fill-2225" points="582 387 606 387 606 363 582 363"></polygon>
            <polyline id="Fill-2226" points="484.944571 386.992708 558 386.992708 558 362.996354 533.611238 362.996354 533.611238 339 509.333333 339 509.333333 362.996354 460.666667 362.996354 460.666667 339 412 339 412 386.992708 436.277904 386.992708 436.277904 411 460.666667 411 460.666667 386.992708 484.944571 386.992708"></polyline>
            <polygon id="Fill-2227" points="605 363 629 363 629 339 605 339"></polygon>
            <polygon id="Fill-2228" points="558 412 582 412 582 388 558 388"></polygon>
            <polygon id="Fill-2229" points="703 412 727 412 727 388 703 388"></polygon>
            <polyline id="Fill-2230" points="630 580.5 630 605 654 605 654 556 630 556 630 580.5"></polyline>
            <polygon id="Fill-2231" points="727 387 751 387 751 363 727 363"></polygon>
            <polyline id="Fill-2232" points="678.036474 411.003646 678.036474 363 653.963526 363 653.963526 386.996354 630 386.996354 630 411.003646 653.963526 411.003646 653.963526 435 702 435 702 411.003646 678.036474 411.003646"></polyline>
            <polygon id="Fill-2233" points="654 556 678 556 678 532 654 532"></polygon>
            <polygon id="Fill-2234" points="679 363 703 363 703 339 679 339"></polygon>
            <polygon id="Fill-2235" points="340 387 364 387 364 363 340 363"></polygon>
            <polyline id="Fill-2236" points="242 266.007292 218.036474 266.007292 218.036474 242 193.963526 242 193.963526 290.003646 170 290.003646 170 314 242 314 242 266.007292"></polyline>
            <polygon id="Fill-2237" points="242 338 266 338 266 314 242 314"></polygon>
            <polygon id="Fill-2238" points="195 363 244 363 244 339 195 339"></polygon>
            <polygon id="Fill-2239" points="242 387 266 387 266 363 242 363"></polygon>
            <polygon id="Fill-2240" points="121 266 145 266 145 242 121 242"></polygon>
            <polygon id="Fill-2241" points="146 291 170 291 170 267 146 267"></polygon>
            <polyline id="Fill-2242" points="123 194.007292 123 170 98.4441913 170 98.4441913 218.003646 74 218.003646 74 242 123 242 123 194.007292"></polyline>
            <polyline id="Fill-2243" points="654 314.494418 654 290 630 290 630 339 654 339 654 314.494418"></polyline>
            <polyline id="Fill-2244" points="315.444191 338.505582 315.444191 314 291 314 291 363 340 363 340 338.505582 315.444191 338.505582"></polyline>
            <polyline id="Fill-2245" points="363 388 363 437 387.555809 437 387.555809 412.505582 412 412.505582 412 388 363 388"></polyline>
            <polyline id="Fill-2246" points="314.963526 435 314.963526 507.597794 291 507.597794 291 531.793383 314.963526 531.793383 314.963526 556 339.036474 556 339.036474 459.195589 363 459.195589 363 435 314.963526 435"></polyline>
            <polygon id="Fill-2247" points="316 412 340 412 340 388 316 388"></polygon>
            <polyline id="Fill-2248" points="194.444191 387.494418 194.444191 363 170 363 170 412 219 412 219 387.494418 194.444191 387.494418"></polyline>
            <polyline id="Fill-2249" points="339.036474 605 291 605 291 629.007292 314.963526 629.007292 314.963526 677 363 677 363 629.007292 339.036474 629.007292 339.036474 605"></polyline>
            <polyline id="Fill-2250" points="847 605 798.963526 605 798.963526 629.505582 775 629.505582 775 654 847 654 847 605"></polyline>
            <polyline id="Fill-2251" points="1187.84412 629.146019 1212 629.146019 1212 604.853981 1187.84412 604.853981 1187.84412 580.57301 1163.68824 580.57301 1163.68824 532 1139.42206 532 1139.42206 580.57301 1115.26618 580.57301 1115.26618 604.853981 1139.42206 604.853981 1139.42206 653.42699 1091 653.42699 1091 677.707962 1139.42206 677.707962 1139.42206 702 1187.84412 702 1187.84412 653.42699 1163.68824 653.42699 1163.68824 629.146019 1187.84412 629.146019"></polyline>
            <polyline id="Fill-2252" points="751.194761 265.752763 751.194761 290 775.5 290 775.5 241.494474 799.694761 241.494474 799.694761 265.752763 824 265.752763 824 217.247237 799.694761 217.247237 799.694761 193 751.194761 193 751.194761 217.247237 727 217.247237 727 241.494474 751.194761 241.494474 751.194761 265.752763"></polyline>
            <polyline id="Fill-2253" points="291 72.5 291 48 267 48 267 97 291 97 291 72.5"></polyline>
            <polyline id="Fill-2254" points="170 217.752763 170 145 146 145 146 242 170 242 170 217.752763"></polyline>
            <polygon id="Fill-2255" points="388 266 412 266 412 242 388 242"></polygon>
            <polygon id="Fill-2256" points="582 314 606 314 606 290 582 290"></polygon>
            <polygon id="Fill-2257" points="558 338 582 338 582 314 558 314"></polygon>
            <polygon id="Fill-2258" points="921 193 970 193 970 169 921 169"></polygon>
            <polygon id="Fill-2259" points="1090 170 1114 170 1114 146 1090 146"></polygon>
            <polygon id="Fill-2260" points="993 338 1017 338 1017 314 993 314"></polygon>
            <polygon id="Fill-2261" points="897 629 921 629 921 605 897 605"></polygon>
            <polyline id="Fill-2262" points="1018 678.247237 1018 751 1042 751 1042 654 1018 654 1018 678.247237"></polyline>
            <polyline id="Fill-2263" points="1308.44419 605.247237 1284 605.247237 1284 629.505526 1308.44419 629.505526 1308.44419 678 1333 678 1333 581 1308.44419 581 1308.44419 605.247237"></polyline>
            <polyline id="Fill-2264" points="1476.96358 630 1501 630 1501 605.494418 1453.03642 605.494418 1453.03642 581 1429 581 1429 630 1476.96358 630"></polyline>
            <polyline id="Fill-2265" points="1405 677.494418 1405 702 1477 702 1477 677.494418 1453.03647 677.494418 1453.03647 653 1428.96353 653 1428.96353 677.494418 1405 677.494418"></polyline>
            <polygon id="Fill-2266" points="146 605 170 605 170 581 146 581"></polygon>
            <polyline id="Fill-2268" points="170 580.5 170 605 194 605 194 556 170 556 170 580.5"></polyline>
        </g>
    </g>
</svg>