<svg id="Layer_1" data-name="Layer 1" xmlns="http://www.w3.org/2000/svg" viewBox="0 0 509.667 464.667"><defs><style>.cls-1{fill:#161616;}.cls-2{fill:#4c47f9;}</style></defs><title>skills-icons--sketch</title><polygon class="cls-1" points="509.833 168.833 252.833 462.833 -0.167 167.833 109.833 18.833 254.833 1.833 396.833 18.833 509.833 168.833"/><path class="cls-2" d="M25.333,137.033l-18.5,24.9h90.5l6.9-130.7-78.9,105.8Zm368.8-116.5-128.6-13.7,135.7,147.2-7.1-133.5Zm-284.1,172.6-11.2-22H7.733l224.9,261.7Zm2-31.2h284l-81.5-88.5-60.4-65.6Zm297.3,9.1-133.9,261.8,224.8-261.7h-90.9Zm3.9-127.2-9.4-12.6.9,17.3,6.1,113.4h90.3Zm-301.9,24.5-4.6,85.6,135.8-147.1-128.6,13.7Zm287.7,102.7h-290l42.4,82.9,102.7,200.9,144.9-283.8Z"/></svg>